<?xml version="1.0" encoding="utf-8" standalone="no"?>
<!DOCTYPE svg PUBLIC "-//W3C//DTD SVG 1.1//EN"
  "http://www.w3.org/Graphics/SVG/1.1/DTD/svg11.dtd">
<svg xmlns:xlink="http://www.w3.org/1999/xlink" width="864pt" height="432pt" viewBox="0 0 864 432" xmlns="http://www.w3.org/2000/svg" version="1.1">
 <metadata>
  <rdf:RDF xmlns:dc="http://purl.org/dc/elements/1.1/" xmlns:cc="http://creativecommons.org/ns#" xmlns:rdf="http://www.w3.org/1999/02/22-rdf-syntax-ns#">
   <cc:Work>
    <dc:type rdf:resource="http://purl.org/dc/dcmitype/StillImage"/>
    <dc:date>2025-07-22T20:40:23.324739</dc:date>
    <dc:format>image/svg+xml</dc:format>
    <dc:creator>
     <cc:Agent>
      <dc:title>Matplotlib v3.9.2, https://matplotlib.org/</dc:title>
     </cc:Agent>
    </dc:creator>
   </cc:Work>
  </rdf:RDF>
 </metadata>
 <defs>
  <style type="text/css">*{stroke-linejoin: round; stroke-linecap: butt}</style>
 </defs>
 <g id="figure_1">
  <g id="patch_1">
   <path d="M 0 432 
L 864 432 
L 864 0 
L 0 0 
z
" style="fill: #ffffff"/>
  </g>
  <g id="axes_1">
   <g id="patch_2">
    <path d="M 50.87 351.109545 
L 705.91 351.109545 
L 705.91 26.88 
L 50.87 26.88 
z
" style="fill: #ffffff"/>
   </g>
   <g id="patch_3">
    <path d="M 61.787333 351.109545 
L 67.246 351.109545 
L 67.246 290.930862 
L 61.787333 290.930862 
z
" clip-path="url(#pb3fbdb1ae4)" style="fill: #e68193"/>
   </g>
   <g id="patch_4">
    <path d="M 170.960667 351.109545 
L 176.419333 351.109545 
L 176.419333 266.536561 
L 170.960667 266.536561 
z
" clip-path="url(#pb3fbdb1ae4)" style="fill: #e68193"/>
   </g>
   <g id="patch_5">
    <path d="M 280.134 351.109545 
L 285.592667 351.109545 
L 285.592667 275.253058 
L 280.134 275.253058 
z
" clip-path="url(#pb3fbdb1ae4)" style="fill: #e68193"/>
   </g>
   <g id="patch_6">
    <path d="M 389.307333 351.109545 
L 394.766 351.109545 
L 394.766 248.285317 
L 389.307333 248.285317 
z
" clip-path="url(#pb3fbdb1ae4)" style="fill: #e68193"/>
   </g>
   <g id="patch_7">
    <path d="M 498.480667 351.109545 
L 503.939333 351.109545 
L 503.939333 237.230592 
L 498.480667 237.230592 
z
" clip-path="url(#pb3fbdb1ae4)" style="fill: #e68193"/>
   </g>
   <g id="patch_8">
    <path d="M 607.654 351.109545 
L 613.112667 351.109545 
L 613.112667 248.074868 
L 607.654 248.074868 
z
" clip-path="url(#pb3fbdb1ae4)" style="fill: #e68193"/>
   </g>
   <g id="patch_9">
    <path d="M 67.246 351.109545 
L 72.704667 351.109545 
L 72.704667 314.63694 
L 67.246 314.63694 
z
" clip-path="url(#pb3fbdb1ae4)" style="fill: #de7e4b"/>
   </g>
   <g id="patch_10">
    <path d="M 176.419333 351.109545 
L 181.878 351.109545 
L 181.878 312.678915 
L 176.419333 312.678915 
z
" clip-path="url(#pb3fbdb1ae4)" style="fill: #de7e4b"/>
   </g>
   <g id="patch_11">
    <path d="M 285.592667 351.109545 
L 291.051333 351.109545 
L 291.051333 295.723834 
L 285.592667 295.723834 
z
" clip-path="url(#pb3fbdb1ae4)" style="fill: #de7e4b"/>
   </g>
   <g id="patch_12">
    <path d="M 394.766 351.109545 
L 400.224667 351.109545 
L 400.224667 296.113659 
L 394.766 296.113659 
z
" clip-path="url(#pb3fbdb1ae4)" style="fill: #de7e4b"/>
   </g>
   <g id="patch_13">
    <path d="M 503.939333 351.109545 
L 509.398 351.109545 
L 509.398 295.575621 
L 503.939333 295.575621 
z
" clip-path="url(#pb3fbdb1ae4)" style="fill: #de7e4b"/>
   </g>
   <g id="patch_14">
    <path d="M 613.112667 351.109545 
L 618.571333 351.109545 
L 618.571333 289.418737 
L 613.112667 289.418737 
z
" clip-path="url(#pb3fbdb1ae4)" style="fill: #de7e4b"/>
   </g>
   <g id="patch_15">
    <path d="M 72.704667 351.109545 
L 78.163333 351.109545 
L 78.163333 314.395692 
L 72.704667 314.395692 
z
" clip-path="url(#pb3fbdb1ae4)" style="fill: #bb8c45"/>
   </g>
   <g id="patch_16">
    <path d="M 181.878 351.109545 
L 187.336667 351.109545 
L 187.336667 311.266774 
L 181.878 311.266774 
z
" clip-path="url(#pb3fbdb1ae4)" style="fill: #bb8c45"/>
   </g>
   <g id="patch_17">
    <path d="M 291.051333 351.109545 
L 296.51 351.109545 
L 296.51 293.224815 
L 291.051333 293.224815 
z
" clip-path="url(#pb3fbdb1ae4)" style="fill: #bb8c45"/>
   </g>
   <g id="patch_18">
    <path d="M 400.224667 351.109545 
L 405.683333 351.109545 
L 405.683333 286.554825 
L 400.224667 286.554825 
z
" clip-path="url(#pb3fbdb1ae4)" style="fill: #bb8c45"/>
   </g>
   <g id="patch_19">
    <path d="M 509.398 351.109545 
L 514.856667 351.109545 
L 514.856667 285.08177 
L 509.398 285.08177 
z
" clip-path="url(#pb3fbdb1ae4)" style="fill: #bb8c45"/>
   </g>
   <g id="patch_20">
    <path d="M 618.571333 351.109545 
L 624.03 351.109545 
L 624.03 287.590568 
L 618.571333 287.590568 
z
" clip-path="url(#pb3fbdb1ae4)" style="fill: #bb8c45"/>
   </g>
   <g id="patch_21">
    <path d="M 78.163333 351.109545 
L 83.622 351.109545 
L 83.622 314.687205 
L 78.163333 314.687205 
z
" clip-path="url(#pb3fbdb1ae4)" style="fill: #a39142"/>
   </g>
   <g id="patch_22">
    <path d="M 187.336667 351.109545 
L 192.795333 351.109545 
L 192.795333 311.393838 
L 187.336667 311.393838 
z
" clip-path="url(#pb3fbdb1ae4)" style="fill: #a39142"/>
   </g>
   <g id="patch_23">
    <path d="M 296.51 351.109545 
L 301.968667 351.109545 
L 301.968667 292.764674 
L 296.51 292.764674 
z
" clip-path="url(#pb3fbdb1ae4)" style="fill: #a39142"/>
   </g>
   <g id="patch_24">
    <path d="M 405.683333 351.109545 
L 411.142 351.109545 
L 411.142 295.750554 
L 405.683333 295.750554 
z
" clip-path="url(#pb3fbdb1ae4)" style="fill: #a39142"/>
   </g>
   <g id="patch_25">
    <path d="M 514.856667 351.109545 
L 520.315333 351.109545 
L 520.315333 296.428673 
L 514.856667 296.428673 
z
" clip-path="url(#pb3fbdb1ae4)" style="fill: #a39142"/>
   </g>
   <g id="patch_26">
    <path d="M 624.03 351.109545 
L 629.488667 351.109545 
L 629.488667 288.618644 
L 624.03 288.618644 
z
" clip-path="url(#pb3fbdb1ae4)" style="fill: #a39142"/>
   </g>
   <g id="patch_27">
    <path d="M 83.622 351.109545 
L 89.080667 351.109545 
L 89.080667 312.573889 
L 83.622 312.573889 
z
" clip-path="url(#pb3fbdb1ae4)" style="fill: #8c9540"/>
   </g>
   <g id="patch_28">
    <path d="M 192.795333 351.109545 
L 198.254 351.109545 
L 198.254 314.500732 
L 192.795333 314.500732 
z
" clip-path="url(#pb3fbdb1ae4)" style="fill: #8c9540"/>
   </g>
   <g id="patch_29">
    <path d="M 301.968667 351.109545 
L 307.427333 351.109545 
L 307.427333 303.075041 
L 301.968667 303.075041 
z
" clip-path="url(#pb3fbdb1ae4)" style="fill: #8c9540"/>
   </g>
   <g id="patch_30">
    <path d="M 411.142 351.109545 
L 416.600667 351.109545 
L 416.600667 297.779221 
L 411.142 297.779221 
z
" clip-path="url(#pb3fbdb1ae4)" style="fill: #8c9540"/>
   </g>
   <g id="patch_31">
    <path d="M 520.315333 351.109545 
L 525.774 351.109545 
L 525.774 295.555609 
L 520.315333 295.555609 
z
" clip-path="url(#pb3fbdb1ae4)" style="fill: #8c9540"/>
   </g>
   <g id="patch_32">
    <path d="M 629.488667 351.109545 
L 634.947333 351.109545 
L 634.947333 330.452273 
L 629.488667 330.452273 
z
" clip-path="url(#pb3fbdb1ae4)" style="fill: #8c9540"/>
   </g>
   <g id="patch_33">
    <path d="M 89.080667 351.109545 
L 94.539333 351.109545 
L 94.539333 276.771846 
L 89.080667 276.771846 
z
" clip-path="url(#pb3fbdb1ae4)" style="fill: #6d9d41"/>
   </g>
   <g id="patch_34">
    <path d="M 198.254 351.109545 
L 203.712667 351.109545 
L 203.712667 256.122599 
L 198.254 256.122599 
z
" clip-path="url(#pb3fbdb1ae4)" style="fill: #6d9d41"/>
   </g>
   <g id="patch_35">
    <path d="M 307.427333 351.109545 
L 312.886 351.109545 
L 312.886 258.042276 
L 307.427333 258.042276 
z
" clip-path="url(#pb3fbdb1ae4)" style="fill: #6d9d41"/>
   </g>
   <g id="patch_36">
    <path d="M 416.600667 351.109545 
L 422.059333 351.109545 
L 422.059333 247.639009 
L 416.600667 247.639009 
z
" clip-path="url(#pb3fbdb1ae4)" style="fill: #6d9d41"/>
   </g>
   <g id="patch_37">
    <path d="M 525.774 351.109545 
L 531.232667 351.109545 
L 531.232667 241.327091 
L 525.774 241.327091 
z
" clip-path="url(#pb3fbdb1ae4)" style="fill: #6d9d41"/>
   </g>
   <g id="patch_38">
    <path d="M 634.947333 351.109545 
L 640.406 351.109545 
L 640.406 252.432111 
L 634.947333 252.432111 
z
" clip-path="url(#pb3fbdb1ae4)" style="fill: #6d9d41"/>
   </g>
   <g id="patch_39">
    <path d="M 94.539333 351.109545 
L 99.998 351.109545 
L 99.998 293.633591 
L 94.539333 293.633591 
z
" clip-path="url(#pb3fbdb1ae4)" style="fill: #42a269"/>
   </g>
   <g id="patch_40">
    <path d="M 203.712667 351.109545 
L 209.171333 351.109545 
L 209.171333 226.250257 
L 203.712667 226.250257 
z
" clip-path="url(#pb3fbdb1ae4)" style="fill: #42a269"/>
   </g>
   <g id="patch_41">
    <path d="M 312.886 351.109545 
L 318.344667 351.109545 
L 318.344667 256.920836 
L 312.886 256.920836 
z
" clip-path="url(#pb3fbdb1ae4)" style="fill: #42a269"/>
   </g>
   <g id="patch_42">
    <path d="M 422.059333 351.109545 
L 427.518 351.109545 
L 427.518 229.771658 
L 422.059333 229.771658 
z
" clip-path="url(#pb3fbdb1ae4)" style="fill: #42a269"/>
   </g>
   <g id="patch_43">
    <path d="M 531.232667 351.109545 
L 536.691333 351.109545 
L 536.691333 215.096596 
L 531.232667 215.096596 
z
" clip-path="url(#pb3fbdb1ae4)" style="fill: #42a269"/>
   </g>
   <g id="patch_44">
    <path d="M 640.406 351.109545 
L 645.864667 351.109545 
L 645.864667 215.642693 
L 640.406 215.642693 
z
" clip-path="url(#pb3fbdb1ae4)" style="fill: #42a269"/>
   </g>
   <g id="patch_45">
    <path d="M 99.998 351.109545 
L 105.456667 351.109545 
L 105.456667 311.314999 
L 99.998 311.314999 
z
" clip-path="url(#pb3fbdb1ae4)" style="fill: #449f87"/>
   </g>
   <g id="patch_46">
    <path d="M 209.171333 351.109545 
L 214.63 351.109545 
L 214.63 309.506864 
L 209.171333 309.506864 
z
" clip-path="url(#pb3fbdb1ae4)" style="fill: #449f87"/>
   </g>
   <g id="patch_47">
    <path d="M 318.344667 351.109545 
L 323.803333 351.109545 
L 323.803333 305.062526 
L 318.344667 305.062526 
z
" clip-path="url(#pb3fbdb1ae4)" style="fill: #449f87"/>
   </g>
   <g id="patch_48">
    <path d="M 427.518 351.109545 
L 432.976667 351.109545 
L 432.976667 295.030775 
L 427.518 295.030775 
z
" clip-path="url(#pb3fbdb1ae4)" style="fill: #449f87"/>
   </g>
   <g id="patch_49">
    <path d="M 536.691333 351.109545 
L 542.15 351.109545 
L 542.15 292.785683 
L 536.691333 292.785683 
z
" clip-path="url(#pb3fbdb1ae4)" style="fill: #449f87"/>
   </g>
   <g id="patch_50">
    <path d="M 645.864667 351.109545 
L 651.323333 351.109545 
L 651.323333 312.814386 
L 645.864667 312.814386 
z
" clip-path="url(#pb3fbdb1ae4)" style="fill: #449f87"/>
   </g>
   <g id="patch_51">
    <path d="M 105.456667 351.109545 
L 110.915333 351.109545 
L 110.915333 317.692517 
L 105.456667 317.692517 
z
" clip-path="url(#pb3fbdb1ae4)" style="fill: #459e97"/>
   </g>
   <g id="patch_52">
    <path d="M 214.63 351.109545 
L 220.088667 351.109545 
L 220.088667 300.499132 
L 214.63 300.499132 
z
" clip-path="url(#pb3fbdb1ae4)" style="fill: #459e97"/>
   </g>
   <g id="patch_53">
    <path d="M 323.803333 351.109545 
L 329.262 351.109545 
L 329.262 291.833632 
L 323.803333 291.833632 
z
" clip-path="url(#pb3fbdb1ae4)" style="fill: #459e97"/>
   </g>
   <g id="patch_54">
    <path d="M 432.976667 351.109545 
L 438.435333 351.109545 
L 438.435333 291.842059 
L 432.976667 291.842059 
z
" clip-path="url(#pb3fbdb1ae4)" style="fill: #459e97"/>
   </g>
   <g id="patch_55">
    <path d="M 542.15 351.109545 
L 547.608667 351.109545 
L 547.608667 269.836303 
L 542.15 269.836303 
z
" clip-path="url(#pb3fbdb1ae4)" style="fill: #459e97"/>
   </g>
   <g id="patch_56">
    <path d="M 651.323333 351.109545 
L 656.782 351.109545 
L 656.782 292.625688 
L 651.323333 292.625688 
z
" clip-path="url(#pb3fbdb1ae4)" style="fill: #459e97"/>
   </g>
   <g id="patch_57">
    <path d="M 110.915333 351.109545 
L 116.374 351.109545 
L 116.374 307.921977 
L 110.915333 307.921977 
z
" clip-path="url(#pb3fbdb1ae4)" style="fill: #479ea8"/>
   </g>
   <g id="patch_58">
    <path d="M 220.088667 351.109545 
L 225.547333 351.109545 
L 225.547333 297.366215 
L 220.088667 297.366215 
z
" clip-path="url(#pb3fbdb1ae4)" style="fill: #479ea8"/>
   </g>
   <g id="patch_59">
    <path d="M 329.262 351.109545 
L 334.720667 351.109545 
L 334.720667 296.589909 
L 329.262 296.589909 
z
" clip-path="url(#pb3fbdb1ae4)" style="fill: #479ea8"/>
   </g>
   <g id="patch_60">
    <path d="M 438.435333 351.109545 
L 443.894 351.109545 
L 443.894 294.622094 
L 438.435333 294.622094 
z
" clip-path="url(#pb3fbdb1ae4)" style="fill: #479ea8"/>
   </g>
   <g id="patch_61">
    <path d="M 547.608667 351.109545 
L 553.067333 351.109545 
L 553.067333 289.419163 
L 547.608667 289.419163 
z
" clip-path="url(#pb3fbdb1ae4)" style="fill: #479ea8"/>
   </g>
   <g id="patch_62">
    <path d="M 656.782 351.109545 
L 662.240667 351.109545 
L 662.240667 305.705958 
L 656.782 305.705958 
z
" clip-path="url(#pb3fbdb1ae4)" style="fill: #479ea8"/>
   </g>
   <g id="patch_63">
    <path d="M 116.374 351.109545 
L 121.832667 351.109545 
L 121.832667 312.108495 
L 116.374 312.108495 
z
" clip-path="url(#pb3fbdb1ae4)" style="fill: #4c9fbd"/>
   </g>
   <g id="patch_64">
    <path d="M 225.547333 351.109545 
L 231.006 351.109545 
L 231.006 310.350386 
L 225.547333 310.350386 
z
" clip-path="url(#pb3fbdb1ae4)" style="fill: #4c9fbd"/>
   </g>
   <g id="patch_65">
    <path d="M 334.720667 351.109545 
L 340.179333 351.109545 
L 340.179333 298.237527 
L 334.720667 298.237527 
z
" clip-path="url(#pb3fbdb1ae4)" style="fill: #4c9fbd"/>
   </g>
   <g id="patch_66">
    <path d="M 443.894 351.109545 
L 449.352667 351.109545 
L 449.352667 309.74939 
L 443.894 309.74939 
z
" clip-path="url(#pb3fbdb1ae4)" style="fill: #4c9fbd"/>
   </g>
   <g id="patch_67">
    <path d="M 553.067333 351.109545 
L 558.526 351.109545 
L 558.526 288.25068 
L 553.067333 288.25068 
z
" clip-path="url(#pb3fbdb1ae4)" style="fill: #4c9fbd"/>
   </g>
   <g id="patch_68">
    <path d="M 662.240667 351.109545 
L 667.699333 351.109545 
L 667.699333 296.238679 
L 662.240667 296.238679 
z
" clip-path="url(#pb3fbdb1ae4)" style="fill: #4c9fbd"/>
   </g>
   <g id="patch_69">
    <path d="M 121.832667 351.109545 
L 127.291333 351.109545 
L 127.291333 278.793848 
L 121.832667 278.793848 
z
" clip-path="url(#pb3fbdb1ae4)" style="fill: #6da0e1"/>
   </g>
   <g id="patch_70">
    <path d="M 231.006 351.109545 
L 236.464667 351.109545 
L 236.464667 253.49806 
L 231.006 253.49806 
z
" clip-path="url(#pb3fbdb1ae4)" style="fill: #6da0e1"/>
   </g>
   <g id="patch_71">
    <path d="M 340.179333 351.109545 
L 345.638 351.109545 
L 345.638 233.96431 
L 340.179333 233.96431 
z
" clip-path="url(#pb3fbdb1ae4)" style="fill: #6da0e1"/>
   </g>
   <g id="patch_72">
    <path d="M 449.352667 351.109545 
L 454.811333 351.109545 
L 454.811333 258.796065 
L 449.352667 258.796065 
z
" clip-path="url(#pb3fbdb1ae4)" style="fill: #6da0e1"/>
   </g>
   <g id="patch_73">
    <path d="M 558.526 351.109545 
L 563.984667 351.109545 
L 563.984667 259.616174 
L 558.526 259.616174 
z
" clip-path="url(#pb3fbdb1ae4)" style="fill: #6da0e1"/>
   </g>
   <g id="patch_74">
    <path d="M 667.699333 351.109545 
L 673.158 351.109545 
L 673.158 221.792146 
L 667.699333 221.792146 
z
" clip-path="url(#pb3fbdb1ae4)" style="fill: #6da0e1"/>
   </g>
   <g id="patch_75">
    <path d="M 127.291333 351.109545 
L 132.75 351.109545 
L 132.75 297.246277 
L 127.291333 297.246277 
z
" clip-path="url(#pb3fbdb1ae4)" style="fill: #ab99e7"/>
   </g>
   <g id="patch_76">
    <path d="M 236.464667 351.109545 
L 241.923333 351.109545 
L 241.923333 263.979926 
L 236.464667 263.979926 
z
" clip-path="url(#pb3fbdb1ae4)" style="fill: #ab99e7"/>
   </g>
   <g id="patch_77">
    <path d="M 345.638 351.109545 
L 351.096667 351.109545 
L 351.096667 42.319502 
L 345.638 42.319502 
z
" clip-path="url(#pb3fbdb1ae4)" style="fill: #ab99e7"/>
   </g>
   <g id="patch_78">
    <path d="M 454.811333 351.109545 
L 460.27 351.109545 
L 460.27 258.775713 
L 454.811333 258.775713 
z
" clip-path="url(#pb3fbdb1ae4)" style="fill: #ab99e7"/>
   </g>
   <g id="patch_79">
    <path d="M 563.984667 351.109545 
L 569.443333 351.109545 
L 569.443333 242.852446 
L 563.984667 242.852446 
z
" clip-path="url(#pb3fbdb1ae4)" style="fill: #ab99e7"/>
   </g>
   <g id="patch_80">
    <path d="M 673.158 351.109545 
L 678.616667 351.109545 
L 678.616667 232.177432 
L 673.158 232.177432 
z
" clip-path="url(#pb3fbdb1ae4)" style="fill: #ab99e7"/>
   </g>
   <g id="patch_81">
    <path d="M 132.75 351.109545 
L 138.208667 351.109545 
L 138.208667 309.321979 
L 132.75 309.321979 
z
" clip-path="url(#pb3fbdb1ae4)" style="fill: #ce84e4"/>
   </g>
   <g id="patch_82">
    <path d="M 241.923333 351.109545 
L 247.382 351.109545 
L 247.382 312.668968 
L 241.923333 312.668968 
z
" clip-path="url(#pb3fbdb1ae4)" style="fill: #ce84e4"/>
   </g>
   <g id="patch_83">
    <path d="M 351.096667 351.109545 
L 356.555333 351.109545 
L 356.555333 301.048424 
L 351.096667 301.048424 
z
" clip-path="url(#pb3fbdb1ae4)" style="fill: #ce84e4"/>
   </g>
   <g id="patch_84">
    <path d="M 460.27 351.109545 
L 465.728667 351.109545 
L 465.728667 289.041287 
L 460.27 289.041287 
z
" clip-path="url(#pb3fbdb1ae4)" style="fill: #ce84e4"/>
   </g>
   <g id="patch_85">
    <path d="M 569.443333 351.109545 
L 574.902 351.109545 
L 574.902 297.942115 
L 569.443333 297.942115 
z
" clip-path="url(#pb3fbdb1ae4)" style="fill: #ce84e4"/>
   </g>
   <g id="patch_86">
    <path d="M 678.616667 351.109545 
L 684.075333 351.109545 
L 684.075333 296.060097 
L 678.616667 296.060097 
z
" clip-path="url(#pb3fbdb1ae4)" style="fill: #ce84e4"/>
   </g>
   <g id="patch_87">
    <path d="M 138.208667 351.109545 
L 143.667333 351.109545 
L 143.667333 288.911472 
L 138.208667 288.911472 
z
" clip-path="url(#pb3fbdb1ae4)" style="fill: #e274d1"/>
   </g>
   <g id="patch_88">
    <path d="M 247.382 351.109545 
L 252.840667 351.109545 
L 252.840667 266.220266 
L 247.382 266.220266 
z
" clip-path="url(#pb3fbdb1ae4)" style="fill: #e274d1"/>
   </g>
   <g id="patch_89">
    <path d="M 356.555333 351.109545 
L 362.014 351.109545 
L 362.014 273.249932 
L 356.555333 273.249932 
z
" clip-path="url(#pb3fbdb1ae4)" style="fill: #e274d1"/>
   </g>
   <g id="patch_90">
    <path d="M 465.728667 351.109545 
L 471.187333 351.109545 
L 471.187333 229.046629 
L 465.728667 229.046629 
z
" clip-path="url(#pb3fbdb1ae4)" style="fill: #e274d1"/>
   </g>
   <g id="patch_91">
    <path d="M 574.902 351.109545 
L 580.360667 351.109545 
L 580.360667 226.4944 
L 574.902 226.4944 
z
" clip-path="url(#pb3fbdb1ae4)" style="fill: #e274d1"/>
   </g>
   <g id="patch_92">
    <path d="M 684.075333 351.109545 
L 689.534 351.109545 
L 689.534 242.888721 
L 684.075333 242.888721 
z
" clip-path="url(#pb3fbdb1ae4)" style="fill: #e274d1"/>
   </g>
   <g id="patch_93">
    <path d="M 143.667333 351.109545 
L 149.126 351.109545 
L 149.126 257.248866 
L 143.667333 257.248866 
z
" clip-path="url(#pb3fbdb1ae4)" style="fill: #e47cb4"/>
   </g>
   <g id="patch_94">
    <path d="M 252.840667 351.109545 
L 258.299333 351.109545 
L 258.299333 221.601777 
L 252.840667 221.601777 
z
" clip-path="url(#pb3fbdb1ae4)" style="fill: #e47cb4"/>
   </g>
   <g id="patch_95">
    <path d="M 362.014 351.109545 
L 367.472667 351.109545 
L 367.472667 240.596396 
L 362.014 240.596396 
z
" clip-path="url(#pb3fbdb1ae4)" style="fill: #e47cb4"/>
   </g>
   <g id="patch_96">
    <path d="M 471.187333 351.109545 
L 476.646 351.109545 
L 476.646 223.438457 
L 471.187333 223.438457 
z
" clip-path="url(#pb3fbdb1ae4)" style="fill: #e47cb4"/>
   </g>
   <g id="patch_97">
    <path d="M 580.360667 351.109545 
L 585.819333 351.109545 
L 585.819333 226.968133 
L 580.360667 226.968133 
z
" clip-path="url(#pb3fbdb1ae4)" style="fill: #e47cb4"/>
   </g>
   <g id="patch_98">
    <path d="M 689.534 351.109545 
L 694.992667 351.109545 
L 694.992667 218.901809 
L 689.534 218.901809 
z
" clip-path="url(#pb3fbdb1ae4)" style="fill: #e47cb4"/>
   </g>
   <g id="patch_99">
    <path d="M 105.456667 351.109545 
L 105.456667 351.109545 
L 105.456667 351.109545 
L 105.456667 351.109545 
z
" clip-path="url(#pb3fbdb1ae4)" style="fill: #e68193"/>
   </g>
   <g id="patch_100">
    <path d="M 105.456667 351.109545 
L 105.456667 351.109545 
L 105.456667 351.109545 
L 105.456667 351.109545 
z
" clip-path="url(#pb3fbdb1ae4)" style="fill: #de7e4b"/>
   </g>
   <g id="patch_101">
    <path d="M 105.456667 351.109545 
L 105.456667 351.109545 
L 105.456667 351.109545 
L 105.456667 351.109545 
z
" clip-path="url(#pb3fbdb1ae4)" style="fill: #bb8c45"/>
   </g>
   <g id="patch_102">
    <path d="M 105.456667 351.109545 
L 105.456667 351.109545 
L 105.456667 351.109545 
L 105.456667 351.109545 
z
" clip-path="url(#pb3fbdb1ae4)" style="fill: #a39142"/>
   </g>
   <g id="patch_103">
    <path d="M 105.456667 351.109545 
L 105.456667 351.109545 
L 105.456667 351.109545 
L 105.456667 351.109545 
z
" clip-path="url(#pb3fbdb1ae4)" style="fill: #8c9540"/>
   </g>
   <g id="patch_104">
    <path d="M 105.456667 351.109545 
L 105.456667 351.109545 
L 105.456667 351.109545 
L 105.456667 351.109545 
z
" clip-path="url(#pb3fbdb1ae4)" style="fill: #6d9d41"/>
   </g>
   <g id="patch_105">
    <path d="M 105.456667 351.109545 
L 105.456667 351.109545 
L 105.456667 351.109545 
L 105.456667 351.109545 
z
" clip-path="url(#pb3fbdb1ae4)" style="fill: #42a269"/>
   </g>
   <g id="patch_106">
    <path d="M 105.456667 351.109545 
L 105.456667 351.109545 
L 105.456667 351.109545 
L 105.456667 351.109545 
z
" clip-path="url(#pb3fbdb1ae4)" style="fill: #449f87"/>
   </g>
   <g id="patch_107">
    <path d="M 105.456667 351.109545 
L 105.456667 351.109545 
L 105.456667 351.109545 
L 105.456667 351.109545 
z
" clip-path="url(#pb3fbdb1ae4)" style="fill: #459e97"/>
   </g>
   <g id="patch_108">
    <path d="M 105.456667 351.109545 
L 105.456667 351.109545 
L 105.456667 351.109545 
L 105.456667 351.109545 
z
" clip-path="url(#pb3fbdb1ae4)" style="fill: #479ea8"/>
   </g>
   <g id="patch_109">
    <path d="M 105.456667 351.109545 
L 105.456667 351.109545 
L 105.456667 351.109545 
L 105.456667 351.109545 
z
" clip-path="url(#pb3fbdb1ae4)" style="fill: #4c9fbd"/>
   </g>
   <g id="patch_110">
    <path d="M 105.456667 351.109545 
L 105.456667 351.109545 
L 105.456667 351.109545 
L 105.456667 351.109545 
z
" clip-path="url(#pb3fbdb1ae4)" style="fill: #6da0e1"/>
   </g>
   <g id="patch_111">
    <path d="M 105.456667 351.109545 
L 105.456667 351.109545 
L 105.456667 351.109545 
L 105.456667 351.109545 
z
" clip-path="url(#pb3fbdb1ae4)" style="fill: #ab99e7"/>
   </g>
   <g id="patch_112">
    <path d="M 105.456667 351.109545 
L 105.456667 351.109545 
L 105.456667 351.109545 
L 105.456667 351.109545 
z
" clip-path="url(#pb3fbdb1ae4)" style="fill: #ce84e4"/>
   </g>
   <g id="patch_113">
    <path d="M 105.456667 351.109545 
L 105.456667 351.109545 
L 105.456667 351.109545 
L 105.456667 351.109545 
z
" clip-path="url(#pb3fbdb1ae4)" style="fill: #e274d1"/>
   </g>
   <g id="patch_114">
    <path d="M 105.456667 351.109545 
L 105.456667 351.109545 
L 105.456667 351.109545 
L 105.456667 351.109545 
z
" clip-path="url(#pb3fbdb1ae4)" style="fill: #e47cb4"/>
   </g>
   <g id="matplotlib.axis_1">
    <g id="xtick_1">
     <g id="line2d_1">
      <defs>
       <path id="m5da208198f" d="M 0 0 
L 0 3.5 
" style="stroke: #000000; stroke-width: 0.8"/>
      </defs>
      <g>
       <use xlink:href="#m5da208198f" x="105.456667" y="351.109545" style="stroke: #000000; stroke-width: 0.8"/>
      </g>
     </g>
     <g id="text_1">
      <!-- (98133,) -->
      <g transform="translate(92.277964 393.742203) rotate(-45) scale(0.1 -0.1)">
       <defs>
        <path id="DejaVuSans-28" d="M 1984 4856 
Q 1566 4138 1362 3434 
Q 1159 2731 1159 2009 
Q 1159 1288 1364 580 
Q 1569 -128 1984 -844 
L 1484 -844 
Q 1016 -109 783 600 
Q 550 1309 550 2009 
Q 550 2706 781 3412 
Q 1013 4119 1484 4856 
L 1984 4856 
z
" transform="scale(0.015625)"/>
        <path id="DejaVuSans-39" d="M 703 97 
L 703 672 
Q 941 559 1184 500 
Q 1428 441 1663 441 
Q 2288 441 2617 861 
Q 2947 1281 2994 2138 
Q 2813 1869 2534 1725 
Q 2256 1581 1919 1581 
Q 1219 1581 811 2004 
Q 403 2428 403 3163 
Q 403 3881 828 4315 
Q 1253 4750 1959 4750 
Q 2769 4750 3195 4129 
Q 3622 3509 3622 2328 
Q 3622 1225 3098 567 
Q 2575 -91 1691 -91 
Q 1453 -91 1209 -44 
Q 966 3 703 97 
z
M 1959 2075 
Q 2384 2075 2632 2365 
Q 2881 2656 2881 3163 
Q 2881 3666 2632 3958 
Q 2384 4250 1959 4250 
Q 1534 4250 1286 3958 
Q 1038 3666 1038 3163 
Q 1038 2656 1286 2365 
Q 1534 2075 1959 2075 
z
" transform="scale(0.015625)"/>
        <path id="DejaVuSans-38" d="M 2034 2216 
Q 1584 2216 1326 1975 
Q 1069 1734 1069 1313 
Q 1069 891 1326 650 
Q 1584 409 2034 409 
Q 2484 409 2743 651 
Q 3003 894 3003 1313 
Q 3003 1734 2745 1975 
Q 2488 2216 2034 2216 
z
M 1403 2484 
Q 997 2584 770 2862 
Q 544 3141 544 3541 
Q 544 4100 942 4425 
Q 1341 4750 2034 4750 
Q 2731 4750 3128 4425 
Q 3525 4100 3525 3541 
Q 3525 3141 3298 2862 
Q 3072 2584 2669 2484 
Q 3125 2378 3379 2068 
Q 3634 1759 3634 1313 
Q 3634 634 3220 271 
Q 2806 -91 2034 -91 
Q 1263 -91 848 271 
Q 434 634 434 1313 
Q 434 1759 690 2068 
Q 947 2378 1403 2484 
z
M 1172 3481 
Q 1172 3119 1398 2916 
Q 1625 2713 2034 2713 
Q 2441 2713 2670 2916 
Q 2900 3119 2900 3481 
Q 2900 3844 2670 4047 
Q 2441 4250 2034 4250 
Q 1625 4250 1398 4047 
Q 1172 3844 1172 3481 
z
" transform="scale(0.015625)"/>
        <path id="DejaVuSans-31" d="M 794 531 
L 1825 531 
L 1825 4091 
L 703 3866 
L 703 4441 
L 1819 4666 
L 2450 4666 
L 2450 531 
L 3481 531 
L 3481 0 
L 794 0 
L 794 531 
z
" transform="scale(0.015625)"/>
        <path id="DejaVuSans-33" d="M 2597 2516 
Q 3050 2419 3304 2112 
Q 3559 1806 3559 1356 
Q 3559 666 3084 287 
Q 2609 -91 1734 -91 
Q 1441 -91 1130 -33 
Q 819 25 488 141 
L 488 750 
Q 750 597 1062 519 
Q 1375 441 1716 441 
Q 2309 441 2620 675 
Q 2931 909 2931 1356 
Q 2931 1769 2642 2001 
Q 2353 2234 1838 2234 
L 1294 2234 
L 1294 2753 
L 1863 2753 
Q 2328 2753 2575 2939 
Q 2822 3125 2822 3475 
Q 2822 3834 2567 4026 
Q 2313 4219 1838 4219 
Q 1578 4219 1281 4162 
Q 984 4106 628 3988 
L 628 4550 
Q 988 4650 1302 4700 
Q 1616 4750 1894 4750 
Q 2613 4750 3031 4423 
Q 3450 4097 3450 3541 
Q 3450 3153 3228 2886 
Q 3006 2619 2597 2516 
z
" transform="scale(0.015625)"/>
        <path id="DejaVuSans-2c" d="M 750 794 
L 1409 794 
L 1409 256 
L 897 -744 
L 494 -744 
L 750 256 
L 750 794 
z
" transform="scale(0.015625)"/>
        <path id="DejaVuSans-29" d="M 513 4856 
L 1013 4856 
Q 1481 4119 1714 3412 
Q 1947 2706 1947 2009 
Q 1947 1309 1714 600 
Q 1481 -109 1013 -844 
L 513 -844 
Q 928 -128 1133 580 
Q 1338 1288 1338 2009 
Q 1338 2731 1133 3434 
Q 928 4138 513 4856 
z
" transform="scale(0.015625)"/>
       </defs>
       <use xlink:href="#DejaVuSans-28"/>
       <use xlink:href="#DejaVuSans-39" x="39.013672"/>
       <use xlink:href="#DejaVuSans-38" x="102.636719"/>
       <use xlink:href="#DejaVuSans-31" x="166.259766"/>
       <use xlink:href="#DejaVuSans-33" x="229.882812"/>
       <use xlink:href="#DejaVuSans-33" x="293.505859"/>
       <use xlink:href="#DejaVuSans-2c" x="357.128906"/>
       <use xlink:href="#DejaVuSans-29" x="388.916016"/>
      </g>
     </g>
    </g>
    <g id="xtick_2">
     <g id="line2d_2">
      <g>
       <use xlink:href="#m5da208198f" x="214.63" y="351.109545" style="stroke: #000000; stroke-width: 0.8"/>
      </g>
     </g>
     <g id="text_2">
      <!-- (98059,) -->
      <g transform="translate(201.451297 393.742203) rotate(-45) scale(0.1 -0.1)">
       <defs>
        <path id="DejaVuSans-30" d="M 2034 4250 
Q 1547 4250 1301 3770 
Q 1056 3291 1056 2328 
Q 1056 1369 1301 889 
Q 1547 409 2034 409 
Q 2525 409 2770 889 
Q 3016 1369 3016 2328 
Q 3016 3291 2770 3770 
Q 2525 4250 2034 4250 
z
M 2034 4750 
Q 2819 4750 3233 4129 
Q 3647 3509 3647 2328 
Q 3647 1150 3233 529 
Q 2819 -91 2034 -91 
Q 1250 -91 836 529 
Q 422 1150 422 2328 
Q 422 3509 836 4129 
Q 1250 4750 2034 4750 
z
" transform="scale(0.015625)"/>
        <path id="DejaVuSans-35" d="M 691 4666 
L 3169 4666 
L 3169 4134 
L 1269 4134 
L 1269 2991 
Q 1406 3038 1543 3061 
Q 1681 3084 1819 3084 
Q 2600 3084 3056 2656 
Q 3513 2228 3513 1497 
Q 3513 744 3044 326 
Q 2575 -91 1722 -91 
Q 1428 -91 1123 -41 
Q 819 9 494 109 
L 494 744 
Q 775 591 1075 516 
Q 1375 441 1709 441 
Q 2250 441 2565 725 
Q 2881 1009 2881 1497 
Q 2881 1984 2565 2268 
Q 2250 2553 1709 2553 
Q 1456 2553 1204 2497 
Q 953 2441 691 2322 
L 691 4666 
z
" transform="scale(0.015625)"/>
       </defs>
       <use xlink:href="#DejaVuSans-28"/>
       <use xlink:href="#DejaVuSans-39" x="39.013672"/>
       <use xlink:href="#DejaVuSans-38" x="102.636719"/>
       <use xlink:href="#DejaVuSans-30" x="166.259766"/>
       <use xlink:href="#DejaVuSans-35" x="229.882812"/>
       <use xlink:href="#DejaVuSans-39" x="293.505859"/>
       <use xlink:href="#DejaVuSans-2c" x="357.128906"/>
       <use xlink:href="#DejaVuSans-29" x="388.916016"/>
      </g>
     </g>
    </g>
    <g id="xtick_3">
     <g id="line2d_3">
      <g>
       <use xlink:href="#m5da208198f" x="323.803333" y="351.109545" style="stroke: #000000; stroke-width: 0.8"/>
      </g>
     </g>
     <g id="text_3">
      <!-- (98058,) -->
      <g transform="translate(310.624631 393.742203) rotate(-45) scale(0.1 -0.1)">
       <use xlink:href="#DejaVuSans-28"/>
       <use xlink:href="#DejaVuSans-39" x="39.013672"/>
       <use xlink:href="#DejaVuSans-38" x="102.636719"/>
       <use xlink:href="#DejaVuSans-30" x="166.259766"/>
       <use xlink:href="#DejaVuSans-35" x="229.882812"/>
       <use xlink:href="#DejaVuSans-38" x="293.505859"/>
       <use xlink:href="#DejaVuSans-2c" x="357.128906"/>
       <use xlink:href="#DejaVuSans-29" x="388.916016"/>
      </g>
     </g>
    </g>
    <g id="xtick_4">
     <g id="line2d_4">
      <g>
       <use xlink:href="#m5da208198f" x="432.976667" y="351.109545" style="stroke: #000000; stroke-width: 0.8"/>
      </g>
     </g>
     <g id="text_4">
      <!-- (98155,) -->
      <g transform="translate(419.797964 393.742203) rotate(-45) scale(0.1 -0.1)">
       <use xlink:href="#DejaVuSans-28"/>
       <use xlink:href="#DejaVuSans-39" x="39.013672"/>
       <use xlink:href="#DejaVuSans-38" x="102.636719"/>
       <use xlink:href="#DejaVuSans-31" x="166.259766"/>
       <use xlink:href="#DejaVuSans-35" x="229.882812"/>
       <use xlink:href="#DejaVuSans-35" x="293.505859"/>
       <use xlink:href="#DejaVuSans-2c" x="357.128906"/>
       <use xlink:href="#DejaVuSans-29" x="388.916016"/>
      </g>
     </g>
    </g>
    <g id="xtick_5">
     <g id="line2d_5">
      <g>
       <use xlink:href="#m5da208198f" x="542.15" y="351.109545" style="stroke: #000000; stroke-width: 0.8"/>
      </g>
     </g>
     <g id="text_5">
      <!-- (98074,) -->
      <g transform="translate(528.971297 393.742203) rotate(-45) scale(0.1 -0.1)">
       <defs>
        <path id="DejaVuSans-37" d="M 525 4666 
L 3525 4666 
L 3525 4397 
L 1831 0 
L 1172 0 
L 2766 4134 
L 525 4134 
L 525 4666 
z
" transform="scale(0.015625)"/>
        <path id="DejaVuSans-34" d="M 2419 4116 
L 825 1625 
L 2419 1625 
L 2419 4116 
z
M 2253 4666 
L 3047 4666 
L 3047 1625 
L 3713 1625 
L 3713 1100 
L 3047 1100 
L 3047 0 
L 2419 0 
L 2419 1100 
L 313 1100 
L 313 1709 
L 2253 4666 
z
" transform="scale(0.015625)"/>
       </defs>
       <use xlink:href="#DejaVuSans-28"/>
       <use xlink:href="#DejaVuSans-39" x="39.013672"/>
       <use xlink:href="#DejaVuSans-38" x="102.636719"/>
       <use xlink:href="#DejaVuSans-30" x="166.259766"/>
       <use xlink:href="#DejaVuSans-37" x="229.882812"/>
       <use xlink:href="#DejaVuSans-34" x="293.505859"/>
       <use xlink:href="#DejaVuSans-2c" x="357.128906"/>
       <use xlink:href="#DejaVuSans-29" x="388.916016"/>
      </g>
     </g>
    </g>
    <g id="xtick_6">
     <g id="line2d_6">
      <g>
       <use xlink:href="#m5da208198f" x="651.323333" y="351.109545" style="stroke: #000000; stroke-width: 0.8"/>
      </g>
     </g>
     <g id="text_6">
      <!-- training_set -->
      <g transform="translate(632.30879 405.21722) rotate(-45) scale(0.1 -0.1)">
       <defs>
        <path id="DejaVuSans-74" d="M 1172 4494 
L 1172 3500 
L 2356 3500 
L 2356 3053 
L 1172 3053 
L 1172 1153 
Q 1172 725 1289 603 
Q 1406 481 1766 481 
L 2356 481 
L 2356 0 
L 1766 0 
Q 1100 0 847 248 
Q 594 497 594 1153 
L 594 3053 
L 172 3053 
L 172 3500 
L 594 3500 
L 594 4494 
L 1172 4494 
z
" transform="scale(0.015625)"/>
        <path id="DejaVuSans-72" d="M 2631 2963 
Q 2534 3019 2420 3045 
Q 2306 3072 2169 3072 
Q 1681 3072 1420 2755 
Q 1159 2438 1159 1844 
L 1159 0 
L 581 0 
L 581 3500 
L 1159 3500 
L 1159 2956 
Q 1341 3275 1631 3429 
Q 1922 3584 2338 3584 
Q 2397 3584 2469 3576 
Q 2541 3569 2628 3553 
L 2631 2963 
z
" transform="scale(0.015625)"/>
        <path id="DejaVuSans-61" d="M 2194 1759 
Q 1497 1759 1228 1600 
Q 959 1441 959 1056 
Q 959 750 1161 570 
Q 1363 391 1709 391 
Q 2188 391 2477 730 
Q 2766 1069 2766 1631 
L 2766 1759 
L 2194 1759 
z
M 3341 1997 
L 3341 0 
L 2766 0 
L 2766 531 
Q 2569 213 2275 61 
Q 1981 -91 1556 -91 
Q 1019 -91 701 211 
Q 384 513 384 1019 
Q 384 1609 779 1909 
Q 1175 2209 1959 2209 
L 2766 2209 
L 2766 2266 
Q 2766 2663 2505 2880 
Q 2244 3097 1772 3097 
Q 1472 3097 1187 3025 
Q 903 2953 641 2809 
L 641 3341 
Q 956 3463 1253 3523 
Q 1550 3584 1831 3584 
Q 2591 3584 2966 3190 
Q 3341 2797 3341 1997 
z
" transform="scale(0.015625)"/>
        <path id="DejaVuSans-69" d="M 603 3500 
L 1178 3500 
L 1178 0 
L 603 0 
L 603 3500 
z
M 603 4863 
L 1178 4863 
L 1178 4134 
L 603 4134 
L 603 4863 
z
" transform="scale(0.015625)"/>
        <path id="DejaVuSans-6e" d="M 3513 2113 
L 3513 0 
L 2938 0 
L 2938 2094 
Q 2938 2591 2744 2837 
Q 2550 3084 2163 3084 
Q 1697 3084 1428 2787 
Q 1159 2491 1159 1978 
L 1159 0 
L 581 0 
L 581 3500 
L 1159 3500 
L 1159 2956 
Q 1366 3272 1645 3428 
Q 1925 3584 2291 3584 
Q 2894 3584 3203 3211 
Q 3513 2838 3513 2113 
z
" transform="scale(0.015625)"/>
        <path id="DejaVuSans-67" d="M 2906 1791 
Q 2906 2416 2648 2759 
Q 2391 3103 1925 3103 
Q 1463 3103 1205 2759 
Q 947 2416 947 1791 
Q 947 1169 1205 825 
Q 1463 481 1925 481 
Q 2391 481 2648 825 
Q 2906 1169 2906 1791 
z
M 3481 434 
Q 3481 -459 3084 -895 
Q 2688 -1331 1869 -1331 
Q 1566 -1331 1297 -1286 
Q 1028 -1241 775 -1147 
L 775 -588 
Q 1028 -725 1275 -790 
Q 1522 -856 1778 -856 
Q 2344 -856 2625 -561 
Q 2906 -266 2906 331 
L 2906 616 
Q 2728 306 2450 153 
Q 2172 0 1784 0 
Q 1141 0 747 490 
Q 353 981 353 1791 
Q 353 2603 747 3093 
Q 1141 3584 1784 3584 
Q 2172 3584 2450 3431 
Q 2728 3278 2906 2969 
L 2906 3500 
L 3481 3500 
L 3481 434 
z
" transform="scale(0.015625)"/>
        <path id="DejaVuSans-5f" d="M 3263 -1063 
L 3263 -1509 
L -63 -1509 
L -63 -1063 
L 3263 -1063 
z
" transform="scale(0.015625)"/>
        <path id="DejaVuSans-73" d="M 2834 3397 
L 2834 2853 
Q 2591 2978 2328 3040 
Q 2066 3103 1784 3103 
Q 1356 3103 1142 2972 
Q 928 2841 928 2578 
Q 928 2378 1081 2264 
Q 1234 2150 1697 2047 
L 1894 2003 
Q 2506 1872 2764 1633 
Q 3022 1394 3022 966 
Q 3022 478 2636 193 
Q 2250 -91 1575 -91 
Q 1294 -91 989 -36 
Q 684 19 347 128 
L 347 722 
Q 666 556 975 473 
Q 1284 391 1588 391 
Q 1994 391 2212 530 
Q 2431 669 2431 922 
Q 2431 1156 2273 1281 
Q 2116 1406 1581 1522 
L 1381 1569 
Q 847 1681 609 1914 
Q 372 2147 372 2553 
Q 372 3047 722 3315 
Q 1072 3584 1716 3584 
Q 2034 3584 2315 3537 
Q 2597 3491 2834 3397 
z
" transform="scale(0.015625)"/>
        <path id="DejaVuSans-65" d="M 3597 1894 
L 3597 1613 
L 953 1613 
Q 991 1019 1311 708 
Q 1631 397 2203 397 
Q 2534 397 2845 478 
Q 3156 559 3463 722 
L 3463 178 
Q 3153 47 2828 -22 
Q 2503 -91 2169 -91 
Q 1331 -91 842 396 
Q 353 884 353 1716 
Q 353 2575 817 3079 
Q 1281 3584 2069 3584 
Q 2775 3584 3186 3129 
Q 3597 2675 3597 1894 
z
M 3022 2063 
Q 3016 2534 2758 2815 
Q 2500 3097 2075 3097 
Q 1594 3097 1305 2825 
Q 1016 2553 972 2059 
L 3022 2063 
z
" transform="scale(0.015625)"/>
       </defs>
       <use xlink:href="#DejaVuSans-74"/>
       <use xlink:href="#DejaVuSans-72" x="39.208984"/>
       <use xlink:href="#DejaVuSans-61" x="80.322266"/>
       <use xlink:href="#DejaVuSans-69" x="141.601562"/>
       <use xlink:href="#DejaVuSans-6e" x="169.384766"/>
       <use xlink:href="#DejaVuSans-69" x="232.763672"/>
       <use xlink:href="#DejaVuSans-6e" x="260.546875"/>
       <use xlink:href="#DejaVuSans-67" x="323.925781"/>
       <use xlink:href="#DejaVuSans-5f" x="387.402344"/>
       <use xlink:href="#DejaVuSans-73" x="437.402344"/>
       <use xlink:href="#DejaVuSans-65" x="489.501953"/>
       <use xlink:href="#DejaVuSans-74" x="551.025391"/>
      </g>
     </g>
    </g>
    <g id="text_7">
     <!-- Leave-Out Task (Season) -->
     <g transform="translate(316.488437 418.482883) scale(0.1 -0.1)">
      <defs>
       <path id="DejaVuSans-4c" d="M 628 4666 
L 1259 4666 
L 1259 531 
L 3531 531 
L 3531 0 
L 628 0 
L 628 4666 
z
" transform="scale(0.015625)"/>
       <path id="DejaVuSans-76" d="M 191 3500 
L 800 3500 
L 1894 563 
L 2988 3500 
L 3597 3500 
L 2284 0 
L 1503 0 
L 191 3500 
z
" transform="scale(0.015625)"/>
       <path id="DejaVuSans-2d" d="M 313 2009 
L 1997 2009 
L 1997 1497 
L 313 1497 
L 313 2009 
z
" transform="scale(0.015625)"/>
       <path id="DejaVuSans-4f" d="M 2522 4238 
Q 1834 4238 1429 3725 
Q 1025 3213 1025 2328 
Q 1025 1447 1429 934 
Q 1834 422 2522 422 
Q 3209 422 3611 934 
Q 4013 1447 4013 2328 
Q 4013 3213 3611 3725 
Q 3209 4238 2522 4238 
z
M 2522 4750 
Q 3503 4750 4090 4092 
Q 4678 3434 4678 2328 
Q 4678 1225 4090 567 
Q 3503 -91 2522 -91 
Q 1538 -91 948 565 
Q 359 1222 359 2328 
Q 359 3434 948 4092 
Q 1538 4750 2522 4750 
z
" transform="scale(0.015625)"/>
       <path id="DejaVuSans-75" d="M 544 1381 
L 544 3500 
L 1119 3500 
L 1119 1403 
Q 1119 906 1312 657 
Q 1506 409 1894 409 
Q 2359 409 2629 706 
Q 2900 1003 2900 1516 
L 2900 3500 
L 3475 3500 
L 3475 0 
L 2900 0 
L 2900 538 
Q 2691 219 2414 64 
Q 2138 -91 1772 -91 
Q 1169 -91 856 284 
Q 544 659 544 1381 
z
M 1991 3584 
L 1991 3584 
z
" transform="scale(0.015625)"/>
       <path id="DejaVuSans-20" transform="scale(0.015625)"/>
       <path id="DejaVuSans-54" d="M -19 4666 
L 3928 4666 
L 3928 4134 
L 2272 4134 
L 2272 0 
L 1638 0 
L 1638 4134 
L -19 4134 
L -19 4666 
z
" transform="scale(0.015625)"/>
       <path id="DejaVuSans-6b" d="M 581 4863 
L 1159 4863 
L 1159 1991 
L 2875 3500 
L 3609 3500 
L 1753 1863 
L 3688 0 
L 2938 0 
L 1159 1709 
L 1159 0 
L 581 0 
L 581 4863 
z
" transform="scale(0.015625)"/>
       <path id="DejaVuSans-53" d="M 3425 4513 
L 3425 3897 
Q 3066 4069 2747 4153 
Q 2428 4238 2131 4238 
Q 1616 4238 1336 4038 
Q 1056 3838 1056 3469 
Q 1056 3159 1242 3001 
Q 1428 2844 1947 2747 
L 2328 2669 
Q 3034 2534 3370 2195 
Q 3706 1856 3706 1288 
Q 3706 609 3251 259 
Q 2797 -91 1919 -91 
Q 1588 -91 1214 -16 
Q 841 59 441 206 
L 441 856 
Q 825 641 1194 531 
Q 1563 422 1919 422 
Q 2459 422 2753 634 
Q 3047 847 3047 1241 
Q 3047 1584 2836 1778 
Q 2625 1972 2144 2069 
L 1759 2144 
Q 1053 2284 737 2584 
Q 422 2884 422 3419 
Q 422 4038 858 4394 
Q 1294 4750 2059 4750 
Q 2388 4750 2728 4690 
Q 3069 4631 3425 4513 
z
" transform="scale(0.015625)"/>
       <path id="DejaVuSans-6f" d="M 1959 3097 
Q 1497 3097 1228 2736 
Q 959 2375 959 1747 
Q 959 1119 1226 758 
Q 1494 397 1959 397 
Q 2419 397 2687 759 
Q 2956 1122 2956 1747 
Q 2956 2369 2687 2733 
Q 2419 3097 1959 3097 
z
M 1959 3584 
Q 2709 3584 3137 3096 
Q 3566 2609 3566 1747 
Q 3566 888 3137 398 
Q 2709 -91 1959 -91 
Q 1206 -91 779 398 
Q 353 888 353 1747 
Q 353 2609 779 3096 
Q 1206 3584 1959 3584 
z
" transform="scale(0.015625)"/>
      </defs>
      <use xlink:href="#DejaVuSans-4c"/>
      <use xlink:href="#DejaVuSans-65" x="53.962891"/>
      <use xlink:href="#DejaVuSans-61" x="115.486328"/>
      <use xlink:href="#DejaVuSans-76" x="176.765625"/>
      <use xlink:href="#DejaVuSans-65" x="235.945312"/>
      <use xlink:href="#DejaVuSans-2d" x="297.46875"/>
      <use xlink:href="#DejaVuSans-4f" x="336.302734"/>
      <use xlink:href="#DejaVuSans-75" x="415.013672"/>
      <use xlink:href="#DejaVuSans-74" x="478.392578"/>
      <use xlink:href="#DejaVuSans-20" x="517.601562"/>
      <use xlink:href="#DejaVuSans-54" x="549.388672"/>
      <use xlink:href="#DejaVuSans-61" x="593.972656"/>
      <use xlink:href="#DejaVuSans-73" x="655.251953"/>
      <use xlink:href="#DejaVuSans-6b" x="707.351562"/>
      <use xlink:href="#DejaVuSans-20" x="765.261719"/>
      <use xlink:href="#DejaVuSans-28" x="797.048828"/>
      <use xlink:href="#DejaVuSans-53" x="836.0625"/>
      <use xlink:href="#DejaVuSans-65" x="899.539062"/>
      <use xlink:href="#DejaVuSans-61" x="961.0625"/>
      <use xlink:href="#DejaVuSans-73" x="1022.341797"/>
      <use xlink:href="#DejaVuSans-6f" x="1074.441406"/>
      <use xlink:href="#DejaVuSans-6e" x="1135.623047"/>
      <use xlink:href="#DejaVuSans-29" x="1199.001953"/>
     </g>
    </g>
   </g>
   <g id="matplotlib.axis_2">
    <g id="ytick_1">
     <g id="line2d_7">
      <defs>
       <path id="m167c0a0414" d="M 0 0 
L -3.5 0 
" style="stroke: #000000; stroke-width: 0.8"/>
      </defs>
      <g>
       <use xlink:href="#m167c0a0414" x="50.87" y="351.109545" style="stroke: #000000; stroke-width: 0.8"/>
      </g>
     </g>
     <g id="text_8">
      <!-- 0 -->
      <g transform="translate(37.5075 354.908764) scale(0.1 -0.1)">
       <use xlink:href="#DejaVuSans-30"/>
      </g>
     </g>
    </g>
    <g id="ytick_2">
     <g id="line2d_8">
      <g>
       <use xlink:href="#m167c0a0414" x="50.87" y="314.97206" style="stroke: #000000; stroke-width: 0.8"/>
      </g>
     </g>
     <g id="text_9">
      <!-- 100 -->
      <g transform="translate(24.7825 318.771279) scale(0.1 -0.1)">
       <use xlink:href="#DejaVuSans-31"/>
       <use xlink:href="#DejaVuSans-30" x="63.623047"/>
       <use xlink:href="#DejaVuSans-30" x="127.246094"/>
      </g>
     </g>
    </g>
    <g id="ytick_3">
     <g id="line2d_9">
      <g>
       <use xlink:href="#m167c0a0414" x="50.87" y="278.834576" style="stroke: #000000; stroke-width: 0.8"/>
      </g>
     </g>
     <g id="text_10">
      <!-- 200 -->
      <g transform="translate(24.7825 282.633795) scale(0.1 -0.1)">
       <defs>
        <path id="DejaVuSans-32" d="M 1228 531 
L 3431 531 
L 3431 0 
L 469 0 
L 469 531 
Q 828 903 1448 1529 
Q 2069 2156 2228 2338 
Q 2531 2678 2651 2914 
Q 2772 3150 2772 3378 
Q 2772 3750 2511 3984 
Q 2250 4219 1831 4219 
Q 1534 4219 1204 4116 
Q 875 4013 500 3803 
L 500 4441 
Q 881 4594 1212 4672 
Q 1544 4750 1819 4750 
Q 2544 4750 2975 4387 
Q 3406 4025 3406 3419 
Q 3406 3131 3298 2873 
Q 3191 2616 2906 2266 
Q 2828 2175 2409 1742 
Q 1991 1309 1228 531 
z
" transform="scale(0.015625)"/>
       </defs>
       <use xlink:href="#DejaVuSans-32"/>
       <use xlink:href="#DejaVuSans-30" x="63.623047"/>
       <use xlink:href="#DejaVuSans-30" x="127.246094"/>
      </g>
     </g>
    </g>
    <g id="ytick_4">
     <g id="line2d_10">
      <g>
       <use xlink:href="#m167c0a0414" x="50.87" y="242.697091" style="stroke: #000000; stroke-width: 0.8"/>
      </g>
     </g>
     <g id="text_11">
      <!-- 300 -->
      <g transform="translate(24.7825 246.49631) scale(0.1 -0.1)">
       <use xlink:href="#DejaVuSans-33"/>
       <use xlink:href="#DejaVuSans-30" x="63.623047"/>
       <use xlink:href="#DejaVuSans-30" x="127.246094"/>
      </g>
     </g>
    </g>
    <g id="ytick_5">
     <g id="line2d_11">
      <g>
       <use xlink:href="#m167c0a0414" x="50.87" y="206.559607" style="stroke: #000000; stroke-width: 0.8"/>
      </g>
     </g>
     <g id="text_12">
      <!-- 400 -->
      <g transform="translate(24.7825 210.358825) scale(0.1 -0.1)">
       <use xlink:href="#DejaVuSans-34"/>
       <use xlink:href="#DejaVuSans-30" x="63.623047"/>
       <use xlink:href="#DejaVuSans-30" x="127.246094"/>
      </g>
     </g>
    </g>
    <g id="ytick_6">
     <g id="line2d_12">
      <g>
       <use xlink:href="#m167c0a0414" x="50.87" y="170.422122" style="stroke: #000000; stroke-width: 0.8"/>
      </g>
     </g>
     <g id="text_13">
      <!-- 500 -->
      <g transform="translate(24.7825 174.221341) scale(0.1 -0.1)">
       <use xlink:href="#DejaVuSans-35"/>
       <use xlink:href="#DejaVuSans-30" x="63.623047"/>
       <use xlink:href="#DejaVuSans-30" x="127.246094"/>
      </g>
     </g>
    </g>
    <g id="ytick_7">
     <g id="line2d_13">
      <g>
       <use xlink:href="#m167c0a0414" x="50.87" y="134.284637" style="stroke: #000000; stroke-width: 0.8"/>
      </g>
     </g>
     <g id="text_14">
      <!-- 600 -->
      <g transform="translate(24.7825 138.083856) scale(0.1 -0.1)">
       <defs>
        <path id="DejaVuSans-36" d="M 2113 2584 
Q 1688 2584 1439 2293 
Q 1191 2003 1191 1497 
Q 1191 994 1439 701 
Q 1688 409 2113 409 
Q 2538 409 2786 701 
Q 3034 994 3034 1497 
Q 3034 2003 2786 2293 
Q 2538 2584 2113 2584 
z
M 3366 4563 
L 3366 3988 
Q 3128 4100 2886 4159 
Q 2644 4219 2406 4219 
Q 1781 4219 1451 3797 
Q 1122 3375 1075 2522 
Q 1259 2794 1537 2939 
Q 1816 3084 2150 3084 
Q 2853 3084 3261 2657 
Q 3669 2231 3669 1497 
Q 3669 778 3244 343 
Q 2819 -91 2113 -91 
Q 1303 -91 875 529 
Q 447 1150 447 2328 
Q 447 3434 972 4092 
Q 1497 4750 2381 4750 
Q 2619 4750 2861 4703 
Q 3103 4656 3366 4563 
z
" transform="scale(0.015625)"/>
       </defs>
       <use xlink:href="#DejaVuSans-36"/>
       <use xlink:href="#DejaVuSans-30" x="63.623047"/>
       <use xlink:href="#DejaVuSans-30" x="127.246094"/>
      </g>
     </g>
    </g>
    <g id="ytick_8">
     <g id="line2d_14">
      <g>
       <use xlink:href="#m167c0a0414" x="50.87" y="98.147153" style="stroke: #000000; stroke-width: 0.8"/>
      </g>
     </g>
     <g id="text_15">
      <!-- 700 -->
      <g transform="translate(24.7825 101.946372) scale(0.1 -0.1)">
       <use xlink:href="#DejaVuSans-37"/>
       <use xlink:href="#DejaVuSans-30" x="63.623047"/>
       <use xlink:href="#DejaVuSans-30" x="127.246094"/>
      </g>
     </g>
    </g>
    <g id="ytick_9">
     <g id="line2d_15">
      <g>
       <use xlink:href="#m167c0a0414" x="50.87" y="62.009668" style="stroke: #000000; stroke-width: 0.8"/>
      </g>
     </g>
     <g id="text_16">
      <!-- 800 -->
      <g transform="translate(24.7825 65.808887) scale(0.1 -0.1)">
       <use xlink:href="#DejaVuSans-38"/>
       <use xlink:href="#DejaVuSans-30" x="63.623047"/>
       <use xlink:href="#DejaVuSans-30" x="127.246094"/>
      </g>
     </g>
    </g>
    <g id="text_17">
     <!-- Loss -->
     <g transform="translate(18.702813 199.96196) rotate(-90) scale(0.1 -0.1)">
      <use xlink:href="#DejaVuSans-4c"/>
      <use xlink:href="#DejaVuSans-6f" x="53.962891"/>
      <use xlink:href="#DejaVuSans-73" x="115.144531"/>
      <use xlink:href="#DejaVuSans-73" x="167.244141"/>
     </g>
    </g>
   </g>
   <g id="line2d_16">
    <path clip-path="url(#pb3fbdb1ae4)" style="fill: none; stroke: #424242; stroke-width: 2.25; stroke-linecap: square"/>
   </g>
   <g id="line2d_17">
    <path clip-path="url(#pb3fbdb1ae4)" style="fill: none; stroke: #424242; stroke-width: 2.25; stroke-linecap: square"/>
   </g>
   <g id="line2d_18">
    <path clip-path="url(#pb3fbdb1ae4)" style="fill: none; stroke: #424242; stroke-width: 2.25; stroke-linecap: square"/>
   </g>
   <g id="line2d_19">
    <path clip-path="url(#pb3fbdb1ae4)" style="fill: none; stroke: #424242; stroke-width: 2.25; stroke-linecap: square"/>
   </g>
   <g id="line2d_20">
    <path clip-path="url(#pb3fbdb1ae4)" style="fill: none; stroke: #424242; stroke-width: 2.25; stroke-linecap: square"/>
   </g>
   <g id="line2d_21">
    <path clip-path="url(#pb3fbdb1ae4)" style="fill: none; stroke: #424242; stroke-width: 2.25; stroke-linecap: square"/>
   </g>
   <g id="line2d_22">
    <path clip-path="url(#pb3fbdb1ae4)" style="fill: none; stroke: #424242; stroke-width: 2.25; stroke-linecap: square"/>
   </g>
   <g id="line2d_23">
    <path clip-path="url(#pb3fbdb1ae4)" style="fill: none; stroke: #424242; stroke-width: 2.25; stroke-linecap: square"/>
   </g>
   <g id="line2d_24">
    <path clip-path="url(#pb3fbdb1ae4)" style="fill: none; stroke: #424242; stroke-width: 2.25; stroke-linecap: square"/>
   </g>
   <g id="line2d_25">
    <path clip-path="url(#pb3fbdb1ae4)" style="fill: none; stroke: #424242; stroke-width: 2.25; stroke-linecap: square"/>
   </g>
   <g id="line2d_26">
    <path clip-path="url(#pb3fbdb1ae4)" style="fill: none; stroke: #424242; stroke-width: 2.25; stroke-linecap: square"/>
   </g>
   <g id="line2d_27">
    <path clip-path="url(#pb3fbdb1ae4)" style="fill: none; stroke: #424242; stroke-width: 2.25; stroke-linecap: square"/>
   </g>
   <g id="line2d_28">
    <path clip-path="url(#pb3fbdb1ae4)" style="fill: none; stroke: #424242; stroke-width: 2.25; stroke-linecap: square"/>
   </g>
   <g id="line2d_29">
    <path clip-path="url(#pb3fbdb1ae4)" style="fill: none; stroke: #424242; stroke-width: 2.25; stroke-linecap: square"/>
   </g>
   <g id="line2d_30">
    <path clip-path="url(#pb3fbdb1ae4)" style="fill: none; stroke: #424242; stroke-width: 2.25; stroke-linecap: square"/>
   </g>
   <g id="line2d_31">
    <path clip-path="url(#pb3fbdb1ae4)" style="fill: none; stroke: #424242; stroke-width: 2.25; stroke-linecap: square"/>
   </g>
   <g id="line2d_32">
    <path clip-path="url(#pb3fbdb1ae4)" style="fill: none; stroke: #424242; stroke-width: 2.25; stroke-linecap: square"/>
   </g>
   <g id="line2d_33">
    <path clip-path="url(#pb3fbdb1ae4)" style="fill: none; stroke: #424242; stroke-width: 2.25; stroke-linecap: square"/>
   </g>
   <g id="line2d_34">
    <path clip-path="url(#pb3fbdb1ae4)" style="fill: none; stroke: #424242; stroke-width: 2.25; stroke-linecap: square"/>
   </g>
   <g id="line2d_35">
    <path clip-path="url(#pb3fbdb1ae4)" style="fill: none; stroke: #424242; stroke-width: 2.25; stroke-linecap: square"/>
   </g>
   <g id="line2d_36">
    <path clip-path="url(#pb3fbdb1ae4)" style="fill: none; stroke: #424242; stroke-width: 2.25; stroke-linecap: square"/>
   </g>
   <g id="line2d_37">
    <path clip-path="url(#pb3fbdb1ae4)" style="fill: none; stroke: #424242; stroke-width: 2.25; stroke-linecap: square"/>
   </g>
   <g id="line2d_38">
    <path clip-path="url(#pb3fbdb1ae4)" style="fill: none; stroke: #424242; stroke-width: 2.25; stroke-linecap: square"/>
   </g>
   <g id="line2d_39">
    <path clip-path="url(#pb3fbdb1ae4)" style="fill: none; stroke: #424242; stroke-width: 2.25; stroke-linecap: square"/>
   </g>
   <g id="line2d_40">
    <path clip-path="url(#pb3fbdb1ae4)" style="fill: none; stroke: #424242; stroke-width: 2.25; stroke-linecap: square"/>
   </g>
   <g id="line2d_41">
    <path clip-path="url(#pb3fbdb1ae4)" style="fill: none; stroke: #424242; stroke-width: 2.25; stroke-linecap: square"/>
   </g>
   <g id="line2d_42">
    <path clip-path="url(#pb3fbdb1ae4)" style="fill: none; stroke: #424242; stroke-width: 2.25; stroke-linecap: square"/>
   </g>
   <g id="line2d_43">
    <path clip-path="url(#pb3fbdb1ae4)" style="fill: none; stroke: #424242; stroke-width: 2.25; stroke-linecap: square"/>
   </g>
   <g id="line2d_44">
    <path clip-path="url(#pb3fbdb1ae4)" style="fill: none; stroke: #424242; stroke-width: 2.25; stroke-linecap: square"/>
   </g>
   <g id="line2d_45">
    <path clip-path="url(#pb3fbdb1ae4)" style="fill: none; stroke: #424242; stroke-width: 2.25; stroke-linecap: square"/>
   </g>
   <g id="line2d_46">
    <path clip-path="url(#pb3fbdb1ae4)" style="fill: none; stroke: #424242; stroke-width: 2.25; stroke-linecap: square"/>
   </g>
   <g id="line2d_47">
    <path clip-path="url(#pb3fbdb1ae4)" style="fill: none; stroke: #424242; stroke-width: 2.25; stroke-linecap: square"/>
   </g>
   <g id="line2d_48">
    <path clip-path="url(#pb3fbdb1ae4)" style="fill: none; stroke: #424242; stroke-width: 2.25; stroke-linecap: square"/>
   </g>
   <g id="line2d_49">
    <path clip-path="url(#pb3fbdb1ae4)" style="fill: none; stroke: #424242; stroke-width: 2.25; stroke-linecap: square"/>
   </g>
   <g id="line2d_50">
    <path clip-path="url(#pb3fbdb1ae4)" style="fill: none; stroke: #424242; stroke-width: 2.25; stroke-linecap: square"/>
   </g>
   <g id="line2d_51">
    <path clip-path="url(#pb3fbdb1ae4)" style="fill: none; stroke: #424242; stroke-width: 2.25; stroke-linecap: square"/>
   </g>
   <g id="line2d_52">
    <path clip-path="url(#pb3fbdb1ae4)" style="fill: none; stroke: #424242; stroke-width: 2.25; stroke-linecap: square"/>
   </g>
   <g id="line2d_53">
    <path clip-path="url(#pb3fbdb1ae4)" style="fill: none; stroke: #424242; stroke-width: 2.25; stroke-linecap: square"/>
   </g>
   <g id="line2d_54">
    <path clip-path="url(#pb3fbdb1ae4)" style="fill: none; stroke: #424242; stroke-width: 2.25; stroke-linecap: square"/>
   </g>
   <g id="line2d_55">
    <path clip-path="url(#pb3fbdb1ae4)" style="fill: none; stroke: #424242; stroke-width: 2.25; stroke-linecap: square"/>
   </g>
   <g id="line2d_56">
    <path clip-path="url(#pb3fbdb1ae4)" style="fill: none; stroke: #424242; stroke-width: 2.25; stroke-linecap: square"/>
   </g>
   <g id="line2d_57">
    <path clip-path="url(#pb3fbdb1ae4)" style="fill: none; stroke: #424242; stroke-width: 2.25; stroke-linecap: square"/>
   </g>
   <g id="line2d_58">
    <path clip-path="url(#pb3fbdb1ae4)" style="fill: none; stroke: #424242; stroke-width: 2.25; stroke-linecap: square"/>
   </g>
   <g id="line2d_59">
    <path clip-path="url(#pb3fbdb1ae4)" style="fill: none; stroke: #424242; stroke-width: 2.25; stroke-linecap: square"/>
   </g>
   <g id="line2d_60">
    <path clip-path="url(#pb3fbdb1ae4)" style="fill: none; stroke: #424242; stroke-width: 2.25; stroke-linecap: square"/>
   </g>
   <g id="line2d_61">
    <path clip-path="url(#pb3fbdb1ae4)" style="fill: none; stroke: #424242; stroke-width: 2.25; stroke-linecap: square"/>
   </g>
   <g id="line2d_62">
    <path clip-path="url(#pb3fbdb1ae4)" style="fill: none; stroke: #424242; stroke-width: 2.25; stroke-linecap: square"/>
   </g>
   <g id="line2d_63">
    <path clip-path="url(#pb3fbdb1ae4)" style="fill: none; stroke: #424242; stroke-width: 2.25; stroke-linecap: square"/>
   </g>
   <g id="line2d_64">
    <path clip-path="url(#pb3fbdb1ae4)" style="fill: none; stroke: #424242; stroke-width: 2.25; stroke-linecap: square"/>
   </g>
   <g id="line2d_65">
    <path clip-path="url(#pb3fbdb1ae4)" style="fill: none; stroke: #424242; stroke-width: 2.25; stroke-linecap: square"/>
   </g>
   <g id="line2d_66">
    <path clip-path="url(#pb3fbdb1ae4)" style="fill: none; stroke: #424242; stroke-width: 2.25; stroke-linecap: square"/>
   </g>
   <g id="line2d_67">
    <path clip-path="url(#pb3fbdb1ae4)" style="fill: none; stroke: #424242; stroke-width: 2.25; stroke-linecap: square"/>
   </g>
   <g id="line2d_68">
    <path clip-path="url(#pb3fbdb1ae4)" style="fill: none; stroke: #424242; stroke-width: 2.25; stroke-linecap: square"/>
   </g>
   <g id="line2d_69">
    <path clip-path="url(#pb3fbdb1ae4)" style="fill: none; stroke: #424242; stroke-width: 2.25; stroke-linecap: square"/>
   </g>
   <g id="line2d_70">
    <path clip-path="url(#pb3fbdb1ae4)" style="fill: none; stroke: #424242; stroke-width: 2.25; stroke-linecap: square"/>
   </g>
   <g id="line2d_71">
    <path clip-path="url(#pb3fbdb1ae4)" style="fill: none; stroke: #424242; stroke-width: 2.25; stroke-linecap: square"/>
   </g>
   <g id="line2d_72">
    <path clip-path="url(#pb3fbdb1ae4)" style="fill: none; stroke: #424242; stroke-width: 2.25; stroke-linecap: square"/>
   </g>
   <g id="line2d_73">
    <path clip-path="url(#pb3fbdb1ae4)" style="fill: none; stroke: #424242; stroke-width: 2.25; stroke-linecap: square"/>
   </g>
   <g id="line2d_74">
    <path clip-path="url(#pb3fbdb1ae4)" style="fill: none; stroke: #424242; stroke-width: 2.25; stroke-linecap: square"/>
   </g>
   <g id="line2d_75">
    <path clip-path="url(#pb3fbdb1ae4)" style="fill: none; stroke: #424242; stroke-width: 2.25; stroke-linecap: square"/>
   </g>
   <g id="line2d_76">
    <path clip-path="url(#pb3fbdb1ae4)" style="fill: none; stroke: #424242; stroke-width: 2.25; stroke-linecap: square"/>
   </g>
   <g id="line2d_77">
    <path clip-path="url(#pb3fbdb1ae4)" style="fill: none; stroke: #424242; stroke-width: 2.25; stroke-linecap: square"/>
   </g>
   <g id="line2d_78">
    <path clip-path="url(#pb3fbdb1ae4)" style="fill: none; stroke: #424242; stroke-width: 2.25; stroke-linecap: square"/>
   </g>
   <g id="line2d_79">
    <path clip-path="url(#pb3fbdb1ae4)" style="fill: none; stroke: #424242; stroke-width: 2.25; stroke-linecap: square"/>
   </g>
   <g id="line2d_80">
    <path clip-path="url(#pb3fbdb1ae4)" style="fill: none; stroke: #424242; stroke-width: 2.25; stroke-linecap: square"/>
   </g>
   <g id="line2d_81">
    <path clip-path="url(#pb3fbdb1ae4)" style="fill: none; stroke: #424242; stroke-width: 2.25; stroke-linecap: square"/>
   </g>
   <g id="line2d_82">
    <path clip-path="url(#pb3fbdb1ae4)" style="fill: none; stroke: #424242; stroke-width: 2.25; stroke-linecap: square"/>
   </g>
   <g id="line2d_83">
    <path clip-path="url(#pb3fbdb1ae4)" style="fill: none; stroke: #424242; stroke-width: 2.25; stroke-linecap: square"/>
   </g>
   <g id="line2d_84">
    <path clip-path="url(#pb3fbdb1ae4)" style="fill: none; stroke: #424242; stroke-width: 2.25; stroke-linecap: square"/>
   </g>
   <g id="line2d_85">
    <path clip-path="url(#pb3fbdb1ae4)" style="fill: none; stroke: #424242; stroke-width: 2.25; stroke-linecap: square"/>
   </g>
   <g id="line2d_86">
    <path clip-path="url(#pb3fbdb1ae4)" style="fill: none; stroke: #424242; stroke-width: 2.25; stroke-linecap: square"/>
   </g>
   <g id="line2d_87">
    <path clip-path="url(#pb3fbdb1ae4)" style="fill: none; stroke: #424242; stroke-width: 2.25; stroke-linecap: square"/>
   </g>
   <g id="line2d_88">
    <path clip-path="url(#pb3fbdb1ae4)" style="fill: none; stroke: #424242; stroke-width: 2.25; stroke-linecap: square"/>
   </g>
   <g id="line2d_89">
    <path clip-path="url(#pb3fbdb1ae4)" style="fill: none; stroke: #424242; stroke-width: 2.25; stroke-linecap: square"/>
   </g>
   <g id="line2d_90">
    <path clip-path="url(#pb3fbdb1ae4)" style="fill: none; stroke: #424242; stroke-width: 2.25; stroke-linecap: square"/>
   </g>
   <g id="line2d_91">
    <path clip-path="url(#pb3fbdb1ae4)" style="fill: none; stroke: #424242; stroke-width: 2.25; stroke-linecap: square"/>
   </g>
   <g id="line2d_92">
    <path clip-path="url(#pb3fbdb1ae4)" style="fill: none; stroke: #424242; stroke-width: 2.25; stroke-linecap: square"/>
   </g>
   <g id="line2d_93">
    <path clip-path="url(#pb3fbdb1ae4)" style="fill: none; stroke: #424242; stroke-width: 2.25; stroke-linecap: square"/>
   </g>
   <g id="line2d_94">
    <path clip-path="url(#pb3fbdb1ae4)" style="fill: none; stroke: #424242; stroke-width: 2.25; stroke-linecap: square"/>
   </g>
   <g id="line2d_95">
    <path clip-path="url(#pb3fbdb1ae4)" style="fill: none; stroke: #424242; stroke-width: 2.25; stroke-linecap: square"/>
   </g>
   <g id="line2d_96">
    <path clip-path="url(#pb3fbdb1ae4)" style="fill: none; stroke: #424242; stroke-width: 2.25; stroke-linecap: square"/>
   </g>
   <g id="line2d_97">
    <path clip-path="url(#pb3fbdb1ae4)" style="fill: none; stroke: #424242; stroke-width: 2.25; stroke-linecap: square"/>
   </g>
   <g id="line2d_98">
    <path clip-path="url(#pb3fbdb1ae4)" style="fill: none; stroke: #424242; stroke-width: 2.25; stroke-linecap: square"/>
   </g>
   <g id="line2d_99">
    <path clip-path="url(#pb3fbdb1ae4)" style="fill: none; stroke: #424242; stroke-width: 2.25; stroke-linecap: square"/>
   </g>
   <g id="line2d_100">
    <path clip-path="url(#pb3fbdb1ae4)" style="fill: none; stroke: #424242; stroke-width: 2.25; stroke-linecap: square"/>
   </g>
   <g id="line2d_101">
    <path clip-path="url(#pb3fbdb1ae4)" style="fill: none; stroke: #424242; stroke-width: 2.25; stroke-linecap: square"/>
   </g>
   <g id="line2d_102">
    <path clip-path="url(#pb3fbdb1ae4)" style="fill: none; stroke: #424242; stroke-width: 2.25; stroke-linecap: square"/>
   </g>
   <g id="line2d_103">
    <path clip-path="url(#pb3fbdb1ae4)" style="fill: none; stroke: #424242; stroke-width: 2.25; stroke-linecap: square"/>
   </g>
   <g id="line2d_104">
    <path clip-path="url(#pb3fbdb1ae4)" style="fill: none; stroke: #424242; stroke-width: 2.25; stroke-linecap: square"/>
   </g>
   <g id="line2d_105">
    <path clip-path="url(#pb3fbdb1ae4)" style="fill: none; stroke: #424242; stroke-width: 2.25; stroke-linecap: square"/>
   </g>
   <g id="line2d_106">
    <path clip-path="url(#pb3fbdb1ae4)" style="fill: none; stroke: #424242; stroke-width: 2.25; stroke-linecap: square"/>
   </g>
   <g id="line2d_107">
    <path clip-path="url(#pb3fbdb1ae4)" style="fill: none; stroke: #424242; stroke-width: 2.25; stroke-linecap: square"/>
   </g>
   <g id="line2d_108">
    <path clip-path="url(#pb3fbdb1ae4)" style="fill: none; stroke: #424242; stroke-width: 2.25; stroke-linecap: square"/>
   </g>
   <g id="line2d_109">
    <path clip-path="url(#pb3fbdb1ae4)" style="fill: none; stroke: #424242; stroke-width: 2.25; stroke-linecap: square"/>
   </g>
   <g id="line2d_110">
    <path clip-path="url(#pb3fbdb1ae4)" style="fill: none; stroke: #424242; stroke-width: 2.25; stroke-linecap: square"/>
   </g>
   <g id="line2d_111">
    <path clip-path="url(#pb3fbdb1ae4)" style="fill: none; stroke: #424242; stroke-width: 2.25; stroke-linecap: square"/>
   </g>
   <g id="patch_115">
    <path d="M 50.87 351.109545 
L 50.87 26.88 
" style="fill: none; stroke: #000000; stroke-width: 0.8; stroke-linejoin: miter; stroke-linecap: square"/>
   </g>
   <g id="patch_116">
    <path d="M 705.91 351.109545 
L 705.91 26.88 
" style="fill: none; stroke: #000000; stroke-width: 0.8; stroke-linejoin: miter; stroke-linecap: square"/>
   </g>
   <g id="patch_117">
    <path d="M 50.87 351.109545 
L 705.91 351.109545 
" style="fill: none; stroke: #000000; stroke-width: 0.8; stroke-linejoin: miter; stroke-linecap: square"/>
   </g>
   <g id="patch_118">
    <path d="M 50.87 26.88 
L 705.91 26.88 
" style="fill: none; stroke: #000000; stroke-width: 0.8; stroke-linejoin: miter; stroke-linecap: square"/>
   </g>
   <g id="text_18">
    <!-- Loss by Method for Each Leave-Out Task - k10 -->
    <g transform="translate(240.0075 20.88) scale(0.12 -0.12)">
     <defs>
      <path id="DejaVuSans-62" d="M 3116 1747 
Q 3116 2381 2855 2742 
Q 2594 3103 2138 3103 
Q 1681 3103 1420 2742 
Q 1159 2381 1159 1747 
Q 1159 1113 1420 752 
Q 1681 391 2138 391 
Q 2594 391 2855 752 
Q 3116 1113 3116 1747 
z
M 1159 2969 
Q 1341 3281 1617 3432 
Q 1894 3584 2278 3584 
Q 2916 3584 3314 3078 
Q 3713 2572 3713 1747 
Q 3713 922 3314 415 
Q 2916 -91 2278 -91 
Q 1894 -91 1617 61 
Q 1341 213 1159 525 
L 1159 0 
L 581 0 
L 581 4863 
L 1159 4863 
L 1159 2969 
z
" transform="scale(0.015625)"/>
      <path id="DejaVuSans-79" d="M 2059 -325 
Q 1816 -950 1584 -1140 
Q 1353 -1331 966 -1331 
L 506 -1331 
L 506 -850 
L 844 -850 
Q 1081 -850 1212 -737 
Q 1344 -625 1503 -206 
L 1606 56 
L 191 3500 
L 800 3500 
L 1894 763 
L 2988 3500 
L 3597 3500 
L 2059 -325 
z
" transform="scale(0.015625)"/>
      <path id="DejaVuSans-4d" d="M 628 4666 
L 1569 4666 
L 2759 1491 
L 3956 4666 
L 4897 4666 
L 4897 0 
L 4281 0 
L 4281 4097 
L 3078 897 
L 2444 897 
L 1241 4097 
L 1241 0 
L 628 0 
L 628 4666 
z
" transform="scale(0.015625)"/>
      <path id="DejaVuSans-68" d="M 3513 2113 
L 3513 0 
L 2938 0 
L 2938 2094 
Q 2938 2591 2744 2837 
Q 2550 3084 2163 3084 
Q 1697 3084 1428 2787 
Q 1159 2491 1159 1978 
L 1159 0 
L 581 0 
L 581 4863 
L 1159 4863 
L 1159 2956 
Q 1366 3272 1645 3428 
Q 1925 3584 2291 3584 
Q 2894 3584 3203 3211 
Q 3513 2838 3513 2113 
z
" transform="scale(0.015625)"/>
      <path id="DejaVuSans-64" d="M 2906 2969 
L 2906 4863 
L 3481 4863 
L 3481 0 
L 2906 0 
L 2906 525 
Q 2725 213 2448 61 
Q 2172 -91 1784 -91 
Q 1150 -91 751 415 
Q 353 922 353 1747 
Q 353 2572 751 3078 
Q 1150 3584 1784 3584 
Q 2172 3584 2448 3432 
Q 2725 3281 2906 2969 
z
M 947 1747 
Q 947 1113 1208 752 
Q 1469 391 1925 391 
Q 2381 391 2643 752 
Q 2906 1113 2906 1747 
Q 2906 2381 2643 2742 
Q 2381 3103 1925 3103 
Q 1469 3103 1208 2742 
Q 947 2381 947 1747 
z
" transform="scale(0.015625)"/>
      <path id="DejaVuSans-66" d="M 2375 4863 
L 2375 4384 
L 1825 4384 
Q 1516 4384 1395 4259 
Q 1275 4134 1275 3809 
L 1275 3500 
L 2222 3500 
L 2222 3053 
L 1275 3053 
L 1275 0 
L 697 0 
L 697 3053 
L 147 3053 
L 147 3500 
L 697 3500 
L 697 3744 
Q 697 4328 969 4595 
Q 1241 4863 1831 4863 
L 2375 4863 
z
" transform="scale(0.015625)"/>
      <path id="DejaVuSans-45" d="M 628 4666 
L 3578 4666 
L 3578 4134 
L 1259 4134 
L 1259 2753 
L 3481 2753 
L 3481 2222 
L 1259 2222 
L 1259 531 
L 3634 531 
L 3634 0 
L 628 0 
L 628 4666 
z
" transform="scale(0.015625)"/>
      <path id="DejaVuSans-63" d="M 3122 3366 
L 3122 2828 
Q 2878 2963 2633 3030 
Q 2388 3097 2138 3097 
Q 1578 3097 1268 2742 
Q 959 2388 959 1747 
Q 959 1106 1268 751 
Q 1578 397 2138 397 
Q 2388 397 2633 464 
Q 2878 531 3122 666 
L 3122 134 
Q 2881 22 2623 -34 
Q 2366 -91 2075 -91 
Q 1284 -91 818 406 
Q 353 903 353 1747 
Q 353 2603 823 3093 
Q 1294 3584 2113 3584 
Q 2378 3584 2631 3529 
Q 2884 3475 3122 3366 
z
" transform="scale(0.015625)"/>
     </defs>
     <use xlink:href="#DejaVuSans-4c"/>
     <use xlink:href="#DejaVuSans-6f" x="53.962891"/>
     <use xlink:href="#DejaVuSans-73" x="115.144531"/>
     <use xlink:href="#DejaVuSans-73" x="167.244141"/>
     <use xlink:href="#DejaVuSans-20" x="219.34375"/>
     <use xlink:href="#DejaVuSans-62" x="251.130859"/>
     <use xlink:href="#DejaVuSans-79" x="314.607422"/>
     <use xlink:href="#DejaVuSans-20" x="373.787109"/>
     <use xlink:href="#DejaVuSans-4d" x="405.574219"/>
     <use xlink:href="#DejaVuSans-65" x="491.853516"/>
     <use xlink:href="#DejaVuSans-74" x="553.376953"/>
     <use xlink:href="#DejaVuSans-68" x="592.585938"/>
     <use xlink:href="#DejaVuSans-6f" x="655.964844"/>
     <use xlink:href="#DejaVuSans-64" x="717.146484"/>
     <use xlink:href="#DejaVuSans-20" x="780.623047"/>
     <use xlink:href="#DejaVuSans-66" x="812.410156"/>
     <use xlink:href="#DejaVuSans-6f" x="847.615234"/>
     <use xlink:href="#DejaVuSans-72" x="908.796875"/>
     <use xlink:href="#DejaVuSans-20" x="949.910156"/>
     <use xlink:href="#DejaVuSans-45" x="981.697266"/>
     <use xlink:href="#DejaVuSans-61" x="1044.880859"/>
     <use xlink:href="#DejaVuSans-63" x="1106.160156"/>
     <use xlink:href="#DejaVuSans-68" x="1161.140625"/>
     <use xlink:href="#DejaVuSans-20" x="1224.519531"/>
     <use xlink:href="#DejaVuSans-4c" x="1256.306641"/>
     <use xlink:href="#DejaVuSans-65" x="1310.269531"/>
     <use xlink:href="#DejaVuSans-61" x="1371.792969"/>
     <use xlink:href="#DejaVuSans-76" x="1433.072266"/>
     <use xlink:href="#DejaVuSans-65" x="1492.251953"/>
     <use xlink:href="#DejaVuSans-2d" x="1553.775391"/>
     <use xlink:href="#DejaVuSans-4f" x="1592.609375"/>
     <use xlink:href="#DejaVuSans-75" x="1671.320312"/>
     <use xlink:href="#DejaVuSans-74" x="1734.699219"/>
     <use xlink:href="#DejaVuSans-20" x="1773.908203"/>
     <use xlink:href="#DejaVuSans-54" x="1805.695312"/>
     <use xlink:href="#DejaVuSans-61" x="1850.279297"/>
     <use xlink:href="#DejaVuSans-73" x="1911.558594"/>
     <use xlink:href="#DejaVuSans-6b" x="1963.658203"/>
     <use xlink:href="#DejaVuSans-20" x="2021.568359"/>
     <use xlink:href="#DejaVuSans-2d" x="2053.355469"/>
     <use xlink:href="#DejaVuSans-20" x="2089.439453"/>
     <use xlink:href="#DejaVuSans-6b" x="2121.226562"/>
     <use xlink:href="#DejaVuSans-31" x="2179.136719"/>
     <use xlink:href="#DejaVuSans-30" x="2242.759766"/>
    </g>
   </g>
   <g id="legend_1">
    <g id="patch_119">
     <path d="M 745.662 284.964375 
L 850.254188 284.964375 
Q 852.254188 284.964375 852.254188 282.964375 
L 852.254188 33.88 
Q 852.254188 31.88 850.254188 31.88 
L 745.662 31.88 
Q 743.662 31.88 743.662 33.88 
L 743.662 282.964375 
Q 743.662 284.964375 745.662 284.964375 
z
" style="fill: #ffffff; opacity: 0.8; stroke: #cccccc; stroke-linejoin: miter"/>
    </g>
    <g id="text_19">
     <!-- Method -->
     <g transform="translate(779.204969 43.478437) scale(0.1 -0.1)">
      <use xlink:href="#DejaVuSans-4d"/>
      <use xlink:href="#DejaVuSans-65" x="86.279297"/>
      <use xlink:href="#DejaVuSans-74" x="147.802734"/>
      <use xlink:href="#DejaVuSans-68" x="187.011719"/>
      <use xlink:href="#DejaVuSans-6f" x="250.390625"/>
      <use xlink:href="#DejaVuSans-64" x="311.572266"/>
     </g>
    </g>
    <g id="patch_120">
     <path d="M 747.662 58.156562 
L 767.662 58.156562 
L 767.662 51.156562 
L 747.662 51.156562 
z
" style="fill: #e68193"/>
    </g>
    <g id="text_20">
     <!-- mean -->
     <g transform="translate(775.662 58.156562) scale(0.1 -0.1)">
      <defs>
       <path id="DejaVuSans-6d" d="M 3328 2828 
Q 3544 3216 3844 3400 
Q 4144 3584 4550 3584 
Q 5097 3584 5394 3201 
Q 5691 2819 5691 2113 
L 5691 0 
L 5113 0 
L 5113 2094 
Q 5113 2597 4934 2840 
Q 4756 3084 4391 3084 
Q 3944 3084 3684 2787 
Q 3425 2491 3425 1978 
L 3425 0 
L 2847 0 
L 2847 2094 
Q 2847 2600 2669 2842 
Q 2491 3084 2119 3084 
Q 1678 3084 1418 2786 
Q 1159 2488 1159 1978 
L 1159 0 
L 581 0 
L 581 3500 
L 1159 3500 
L 1159 2956 
Q 1356 3278 1631 3431 
Q 1906 3584 2284 3584 
Q 2666 3584 2933 3390 
Q 3200 3197 3328 2828 
z
" transform="scale(0.015625)"/>
      </defs>
      <use xlink:href="#DejaVuSans-6d"/>
      <use xlink:href="#DejaVuSans-65" x="97.412109"/>
      <use xlink:href="#DejaVuSans-61" x="158.935547"/>
      <use xlink:href="#DejaVuSans-6e" x="220.214844"/>
     </g>
    </g>
    <g id="patch_121">
     <path d="M 747.662 72.834687 
L 767.662 72.834687 
L 767.662 65.834687 
L 747.662 65.834687 
z
" style="fill: #de7e4b"/>
    </g>
    <g id="text_21">
     <!-- pooling -->
     <g transform="translate(775.662 72.834687) scale(0.1 -0.1)">
      <defs>
       <path id="DejaVuSans-70" d="M 1159 525 
L 1159 -1331 
L 581 -1331 
L 581 3500 
L 1159 3500 
L 1159 2969 
Q 1341 3281 1617 3432 
Q 1894 3584 2278 3584 
Q 2916 3584 3314 3078 
Q 3713 2572 3713 1747 
Q 3713 922 3314 415 
Q 2916 -91 2278 -91 
Q 1894 -91 1617 61 
Q 1341 213 1159 525 
z
M 3116 1747 
Q 3116 2381 2855 2742 
Q 2594 3103 2138 3103 
Q 1681 3103 1420 2742 
Q 1159 2381 1159 1747 
Q 1159 1113 1420 752 
Q 1681 391 2138 391 
Q 2594 391 2855 752 
Q 3116 1113 3116 1747 
z
" transform="scale(0.015625)"/>
       <path id="DejaVuSans-6c" d="M 603 4863 
L 1178 4863 
L 1178 0 
L 603 0 
L 603 4863 
z
" transform="scale(0.015625)"/>
      </defs>
      <use xlink:href="#DejaVuSans-70"/>
      <use xlink:href="#DejaVuSans-6f" x="63.476562"/>
      <use xlink:href="#DejaVuSans-6f" x="124.658203"/>
      <use xlink:href="#DejaVuSans-6c" x="185.839844"/>
      <use xlink:href="#DejaVuSans-69" x="213.623047"/>
      <use xlink:href="#DejaVuSans-6e" x="241.40625"/>
      <use xlink:href="#DejaVuSans-67" x="304.785156"/>
     </g>
    </g>
    <g id="patch_122">
     <path d="M 747.662 87.512812 
L 767.662 87.512812 
L 767.662 80.512812 
L 747.662 80.512812 
z
" style="fill: #bb8c45"/>
    </g>
    <g id="text_22">
     <!-- shat -->
     <g transform="translate(775.662 87.512812) scale(0.1 -0.1)">
      <use xlink:href="#DejaVuSans-73"/>
      <use xlink:href="#DejaVuSans-68" x="52.099609"/>
      <use xlink:href="#DejaVuSans-61" x="115.478516"/>
      <use xlink:href="#DejaVuSans-74" x="176.757812"/>
     </g>
    </g>
    <g id="patch_123">
     <path d="M 747.662 102.190937 
L 767.662 102.190937 
L 767.662 95.190937 
L 747.662 95.190937 
z
" style="fill: #a39142"/>
    </g>
    <g id="text_23">
     <!-- sgreedy -->
     <g transform="translate(775.662 102.190937) scale(0.1 -0.1)">
      <use xlink:href="#DejaVuSans-73"/>
      <use xlink:href="#DejaVuSans-67" x="52.099609"/>
      <use xlink:href="#DejaVuSans-72" x="115.576172"/>
      <use xlink:href="#DejaVuSans-65" x="154.439453"/>
      <use xlink:href="#DejaVuSans-65" x="215.962891"/>
      <use xlink:href="#DejaVuSans-64" x="277.486328"/>
      <use xlink:href="#DejaVuSans-79" x="340.962891"/>
     </g>
    </g>
    <g id="patch_124">
     <path d="M 747.662 116.869062 
L 767.662 116.869062 
L 767.662 109.869062 
L 747.662 109.869062 
z
" style="fill: #8c9540"/>
    </g>
    <g id="text_24">
     <!-- random_forest -->
     <g transform="translate(775.662 116.869062) scale(0.1 -0.1)">
      <use xlink:href="#DejaVuSans-72"/>
      <use xlink:href="#DejaVuSans-61" x="41.113281"/>
      <use xlink:href="#DejaVuSans-6e" x="102.392578"/>
      <use xlink:href="#DejaVuSans-64" x="165.771484"/>
      <use xlink:href="#DejaVuSans-6f" x="229.248047"/>
      <use xlink:href="#DejaVuSans-6d" x="290.429688"/>
      <use xlink:href="#DejaVuSans-5f" x="387.841797"/>
      <use xlink:href="#DejaVuSans-66" x="437.841797"/>
      <use xlink:href="#DejaVuSans-6f" x="473.046875"/>
      <use xlink:href="#DejaVuSans-72" x="534.228516"/>
      <use xlink:href="#DejaVuSans-65" x="573.091797"/>
      <use xlink:href="#DejaVuSans-73" x="634.615234"/>
      <use xlink:href="#DejaVuSans-74" x="686.714844"/>
     </g>
    </g>
    <g id="patch_125">
     <path d="M 747.662 131.825312 
L 767.662 131.825312 
L 767.662 124.825312 
L 747.662 124.825312 
z
" style="fill: #6d9d41"/>
    </g>
    <g id="text_25">
     <!-- shat-rf -->
     <g transform="translate(775.662 131.825312) scale(0.1 -0.1)">
      <use xlink:href="#DejaVuSans-73"/>
      <use xlink:href="#DejaVuSans-68" x="52.099609"/>
      <use xlink:href="#DejaVuSans-61" x="115.478516"/>
      <use xlink:href="#DejaVuSans-74" x="176.757812"/>
      <use xlink:href="#DejaVuSans-2d" x="215.966797"/>
      <use xlink:href="#DejaVuSans-72" x="252.050781"/>
      <use xlink:href="#DejaVuSans-66" x="293.164062"/>
     </g>
    </g>
    <g id="patch_126">
     <path d="M 747.662 146.503438 
L 767.662 146.503438 
L 767.662 139.503438 
L 747.662 139.503438 
z
" style="fill: #42a269"/>
    </g>
    <g id="text_26">
     <!-- sgreedy-rf -->
     <g transform="translate(775.662 146.503438) scale(0.1 -0.1)">
      <use xlink:href="#DejaVuSans-73"/>
      <use xlink:href="#DejaVuSans-67" x="52.099609"/>
      <use xlink:href="#DejaVuSans-72" x="115.576172"/>
      <use xlink:href="#DejaVuSans-65" x="154.439453"/>
      <use xlink:href="#DejaVuSans-65" x="215.962891"/>
      <use xlink:href="#DejaVuSans-64" x="277.486328"/>
      <use xlink:href="#DejaVuSans-79" x="340.962891"/>
      <use xlink:href="#DejaVuSans-2d" x="398.392578"/>
      <use xlink:href="#DejaVuSans-72" x="434.476562"/>
      <use xlink:href="#DejaVuSans-66" x="475.589844"/>
     </g>
    </g>
    <g id="patch_127">
     <path d="M 747.662 161.181562 
L 767.662 161.181562 
L 767.662 154.181562 
L 747.662 154.181562 
z
" style="fill: #449f87"/>
    </g>
    <g id="text_27">
     <!-- lightGBM -->
     <g transform="translate(775.662 161.181562) scale(0.1 -0.1)">
      <defs>
       <path id="DejaVuSans-47" d="M 3809 666 
L 3809 1919 
L 2778 1919 
L 2778 2438 
L 4434 2438 
L 4434 434 
Q 4069 175 3628 42 
Q 3188 -91 2688 -91 
Q 1594 -91 976 548 
Q 359 1188 359 2328 
Q 359 3472 976 4111 
Q 1594 4750 2688 4750 
Q 3144 4750 3555 4637 
Q 3966 4525 4313 4306 
L 4313 3634 
Q 3963 3931 3569 4081 
Q 3175 4231 2741 4231 
Q 1884 4231 1454 3753 
Q 1025 3275 1025 2328 
Q 1025 1384 1454 906 
Q 1884 428 2741 428 
Q 3075 428 3337 486 
Q 3600 544 3809 666 
z
" transform="scale(0.015625)"/>
       <path id="DejaVuSans-42" d="M 1259 2228 
L 1259 519 
L 2272 519 
Q 2781 519 3026 730 
Q 3272 941 3272 1375 
Q 3272 1813 3026 2020 
Q 2781 2228 2272 2228 
L 1259 2228 
z
M 1259 4147 
L 1259 2741 
L 2194 2741 
Q 2656 2741 2882 2914 
Q 3109 3088 3109 3444 
Q 3109 3797 2882 3972 
Q 2656 4147 2194 4147 
L 1259 4147 
z
M 628 4666 
L 2241 4666 
Q 2963 4666 3353 4366 
Q 3744 4066 3744 3513 
Q 3744 3084 3544 2831 
Q 3344 2578 2956 2516 
Q 3422 2416 3680 2098 
Q 3938 1781 3938 1306 
Q 3938 681 3513 340 
Q 3088 0 2303 0 
L 628 0 
L 628 4666 
z
" transform="scale(0.015625)"/>
      </defs>
      <use xlink:href="#DejaVuSans-6c"/>
      <use xlink:href="#DejaVuSans-69" x="27.783203"/>
      <use xlink:href="#DejaVuSans-67" x="55.566406"/>
      <use xlink:href="#DejaVuSans-68" x="119.042969"/>
      <use xlink:href="#DejaVuSans-74" x="182.421875"/>
      <use xlink:href="#DejaVuSans-47" x="221.630859"/>
      <use xlink:href="#DejaVuSans-42" x="299.121094"/>
      <use xlink:href="#DejaVuSans-4d" x="367.724609"/>
     </g>
    </g>
    <g id="patch_128">
     <path d="M 747.662 175.859687 
L 767.662 175.859687 
L 767.662 168.859687 
L 747.662 168.859687 
z
" style="fill: #459e97"/>
    </g>
    <g id="text_28">
     <!-- shat-LGBM -->
     <g transform="translate(775.662 175.859687) scale(0.1 -0.1)">
      <use xlink:href="#DejaVuSans-73"/>
      <use xlink:href="#DejaVuSans-68" x="52.099609"/>
      <use xlink:href="#DejaVuSans-61" x="115.478516"/>
      <use xlink:href="#DejaVuSans-74" x="176.757812"/>
      <use xlink:href="#DejaVuSans-2d" x="215.966797"/>
      <use xlink:href="#DejaVuSans-4c" x="252.050781"/>
      <use xlink:href="#DejaVuSans-47" x="307.763672"/>
      <use xlink:href="#DejaVuSans-42" x="385.253906"/>
      <use xlink:href="#DejaVuSans-4d" x="453.857422"/>
     </g>
    </g>
    <g id="patch_129">
     <path d="M 747.662 190.537812 
L 767.662 190.537812 
L 767.662 183.537812 
L 747.662 183.537812 
z
" style="fill: #479ea8"/>
    </g>
    <g id="text_29">
     <!-- sgreedy-LGBM -->
     <g transform="translate(775.662 190.537812) scale(0.1 -0.1)">
      <use xlink:href="#DejaVuSans-73"/>
      <use xlink:href="#DejaVuSans-67" x="52.099609"/>
      <use xlink:href="#DejaVuSans-72" x="115.576172"/>
      <use xlink:href="#DejaVuSans-65" x="154.439453"/>
      <use xlink:href="#DejaVuSans-65" x="215.962891"/>
      <use xlink:href="#DejaVuSans-64" x="277.486328"/>
      <use xlink:href="#DejaVuSans-79" x="340.962891"/>
      <use xlink:href="#DejaVuSans-2d" x="398.392578"/>
      <use xlink:href="#DejaVuSans-4c" x="434.476562"/>
      <use xlink:href="#DejaVuSans-47" x="490.189453"/>
      <use xlink:href="#DejaVuSans-42" x="567.679688"/>
      <use xlink:href="#DejaVuSans-4d" x="636.283203"/>
     </g>
    </g>
    <g id="patch_130">
     <path d="M 747.662 205.215937 
L 767.662 205.215937 
L 767.662 198.215937 
L 747.662 198.215937 
z
" style="fill: #4c9fbd"/>
    </g>
    <g id="text_30">
     <!-- polynomial 2 -->
     <g transform="translate(775.662 205.215937) scale(0.1 -0.1)">
      <use xlink:href="#DejaVuSans-70"/>
      <use xlink:href="#DejaVuSans-6f" x="63.476562"/>
      <use xlink:href="#DejaVuSans-6c" x="124.658203"/>
      <use xlink:href="#DejaVuSans-79" x="152.441406"/>
      <use xlink:href="#DejaVuSans-6e" x="211.621094"/>
      <use xlink:href="#DejaVuSans-6f" x="275"/>
      <use xlink:href="#DejaVuSans-6d" x="336.181641"/>
      <use xlink:href="#DejaVuSans-69" x="433.59375"/>
      <use xlink:href="#DejaVuSans-61" x="461.376953"/>
      <use xlink:href="#DejaVuSans-6c" x="522.65625"/>
      <use xlink:href="#DejaVuSans-20" x="550.439453"/>
      <use xlink:href="#DejaVuSans-32" x="582.226562"/>
     </g>
    </g>
    <g id="patch_131">
     <path d="M 747.662 219.894062 
L 767.662 219.894062 
L 767.662 212.894062 
L 747.662 212.894062 
z
" style="fill: #6da0e1"/>
    </g>
    <g id="text_31">
     <!-- shat-poly -->
     <g transform="translate(775.662 219.894062) scale(0.1 -0.1)">
      <use xlink:href="#DejaVuSans-73"/>
      <use xlink:href="#DejaVuSans-68" x="52.099609"/>
      <use xlink:href="#DejaVuSans-61" x="115.478516"/>
      <use xlink:href="#DejaVuSans-74" x="176.757812"/>
      <use xlink:href="#DejaVuSans-2d" x="215.966797"/>
      <use xlink:href="#DejaVuSans-70" x="252.050781"/>
      <use xlink:href="#DejaVuSans-6f" x="315.527344"/>
      <use xlink:href="#DejaVuSans-6c" x="376.708984"/>
      <use xlink:href="#DejaVuSans-79" x="404.492188"/>
     </g>
    </g>
    <g id="patch_132">
     <path d="M 747.662 234.572187 
L 767.662 234.572187 
L 767.662 227.572187 
L 747.662 227.572187 
z
" style="fill: #ab99e7"/>
    </g>
    <g id="text_32">
     <!-- sgreedy-poly -->
     <g transform="translate(775.662 234.572187) scale(0.1 -0.1)">
      <use xlink:href="#DejaVuSans-73"/>
      <use xlink:href="#DejaVuSans-67" x="52.099609"/>
      <use xlink:href="#DejaVuSans-72" x="115.576172"/>
      <use xlink:href="#DejaVuSans-65" x="154.439453"/>
      <use xlink:href="#DejaVuSans-65" x="215.962891"/>
      <use xlink:href="#DejaVuSans-64" x="277.486328"/>
      <use xlink:href="#DejaVuSans-79" x="340.962891"/>
      <use xlink:href="#DejaVuSans-2d" x="398.392578"/>
      <use xlink:href="#DejaVuSans-70" x="434.476562"/>
      <use xlink:href="#DejaVuSans-6f" x="497.953125"/>
      <use xlink:href="#DejaVuSans-6c" x="559.134766"/>
      <use xlink:href="#DejaVuSans-79" x="586.917969"/>
     </g>
    </g>
    <g id="patch_133">
     <path d="M 747.662 249.250312 
L 767.662 249.250312 
L 767.662 242.250312 
L 747.662 242.250312 
z
" style="fill: #ce84e4"/>
    </g>
    <g id="text_33">
     <!-- Pooling_GAM -->
     <g transform="translate(775.662 249.250312) scale(0.1 -0.1)">
      <defs>
       <path id="DejaVuSans-50" d="M 1259 4147 
L 1259 2394 
L 2053 2394 
Q 2494 2394 2734 2622 
Q 2975 2850 2975 3272 
Q 2975 3691 2734 3919 
Q 2494 4147 2053 4147 
L 1259 4147 
z
M 628 4666 
L 2053 4666 
Q 2838 4666 3239 4311 
Q 3641 3956 3641 3272 
Q 3641 2581 3239 2228 
Q 2838 1875 2053 1875 
L 1259 1875 
L 1259 0 
L 628 0 
L 628 4666 
z
" transform="scale(0.015625)"/>
       <path id="DejaVuSans-41" d="M 2188 4044 
L 1331 1722 
L 3047 1722 
L 2188 4044 
z
M 1831 4666 
L 2547 4666 
L 4325 0 
L 3669 0 
L 3244 1197 
L 1141 1197 
L 716 0 
L 50 0 
L 1831 4666 
z
" transform="scale(0.015625)"/>
      </defs>
      <use xlink:href="#DejaVuSans-50"/>
      <use xlink:href="#DejaVuSans-6f" x="56.677734"/>
      <use xlink:href="#DejaVuSans-6f" x="117.859375"/>
      <use xlink:href="#DejaVuSans-6c" x="179.041016"/>
      <use xlink:href="#DejaVuSans-69" x="206.824219"/>
      <use xlink:href="#DejaVuSans-6e" x="234.607422"/>
      <use xlink:href="#DejaVuSans-67" x="297.986328"/>
      <use xlink:href="#DejaVuSans-5f" x="361.462891"/>
      <use xlink:href="#DejaVuSans-47" x="411.462891"/>
      <use xlink:href="#DejaVuSans-41" x="488.953125"/>
      <use xlink:href="#DejaVuSans-4d" x="557.361328"/>
     </g>
    </g>
    <g id="patch_134">
     <path d="M 747.662 264.206562 
L 767.662 264.206562 
L 767.662 257.206562 
L 747.662 257.206562 
z
" style="fill: #e274d1"/>
    </g>
    <g id="text_34">
     <!-- shat-gam -->
     <g transform="translate(775.662 264.206562) scale(0.1 -0.1)">
      <use xlink:href="#DejaVuSans-73"/>
      <use xlink:href="#DejaVuSans-68" x="52.099609"/>
      <use xlink:href="#DejaVuSans-61" x="115.478516"/>
      <use xlink:href="#DejaVuSans-74" x="176.757812"/>
      <use xlink:href="#DejaVuSans-2d" x="215.966797"/>
      <use xlink:href="#DejaVuSans-67" x="252.050781"/>
      <use xlink:href="#DejaVuSans-61" x="315.527344"/>
      <use xlink:href="#DejaVuSans-6d" x="376.806641"/>
     </g>
    </g>
    <g id="patch_135">
     <path d="M 747.662 278.884687 
L 767.662 278.884687 
L 767.662 271.884687 
L 747.662 271.884687 
z
" style="fill: #e47cb4"/>
    </g>
    <g id="text_35">
     <!-- sgreedy-gam -->
     <g transform="translate(775.662 278.884687) scale(0.1 -0.1)">
      <use xlink:href="#DejaVuSans-73"/>
      <use xlink:href="#DejaVuSans-67" x="52.099609"/>
      <use xlink:href="#DejaVuSans-72" x="115.576172"/>
      <use xlink:href="#DejaVuSans-65" x="154.439453"/>
      <use xlink:href="#DejaVuSans-65" x="215.962891"/>
      <use xlink:href="#DejaVuSans-64" x="277.486328"/>
      <use xlink:href="#DejaVuSans-79" x="340.962891"/>
      <use xlink:href="#DejaVuSans-2d" x="398.392578"/>
      <use xlink:href="#DejaVuSans-67" x="434.476562"/>
      <use xlink:href="#DejaVuSans-61" x="497.953125"/>
      <use xlink:href="#DejaVuSans-6d" x="559.232422"/>
     </g>
    </g>
   </g>
  </g>
 </g>
 <defs>
  <clipPath id="pb3fbdb1ae4">
   <rect x="50.87" y="26.88" width="655.04" height="324.229545"/>
  </clipPath>
 </defs>
</svg>
